<svg width="32" height="32" viewBox="0 0 32 32" fill="none" xmlns="http://www.w3.org/2000/svg">
<path fill-rule="evenodd" clip-rule="evenodd" d="M7.2593 25.9267C7.92454 27.081 9.40148 27.4756 10.5545 26.8091C11.7062 26.1426 12.1009 24.6695 11.4357 23.5165L9.41017 20.0066C8.74493 18.8536 7.27171 18.4577 6.11747 19.1229L5.83449 19.2854C5.11092 19.7037 4.74603 20.5626 4.99301 21.3607C5.43237 22.7829 6.18572 24.3133 7.2593 25.9267Z" stroke="#EBEAEF" stroke-width="1.92" stroke-linecap="round" stroke-linejoin="round"/>
<path fill-rule="evenodd" clip-rule="evenodd" d="M24.7569 25.9267C24.0916 27.081 22.6147 27.4756 21.4617 26.8091C20.3099 26.1426 19.9153 24.6695 20.5805 23.5165L22.606 20.0066C23.2712 18.8536 24.7445 18.4577 25.8987 19.1229L26.1817 19.2854C26.9053 19.7037 27.2702 20.5626 27.0231 21.3607C26.5838 22.7829 25.8304 24.3133 24.7569 25.9267Z" stroke="#EBEAEF" stroke-width="1.92" stroke-linecap="round" stroke-linejoin="round"/>
<path fill-rule="evenodd" clip-rule="evenodd" d="M7.81817 10.6743C7.20009 10.0563 7.16162 9.04847 7.76232 8.41302C7.83183 8.33979 7.90257 8.26656 7.97579 8.19333C12.4103 3.7588 19.5989 3.7588 24.0334 8.19333C24.1054 8.26532 24.1749 8.33731 24.2444 8.41054C24.8464 9.04723 24.808 10.0575 24.1886 10.6768C23.5321 11.3334 22.4784 11.2986 21.8354 10.6284C21.7969 10.5887 21.7585 10.549 21.7188 10.5093C18.5626 7.34069 13.448 7.34069 10.2793 10.5093C10.2408 10.5478 10.2036 10.5862 10.1651 10.6259C9.52347 11.2937 8.47348 11.3297 7.81817 10.6743Z" stroke="#EBEAEF" stroke-width="1.92" stroke-linecap="round" stroke-linejoin="round"/>
<path opacity="0.4" d="M24.5024 10.2175C26.3802 12.2679 27.5208 14.9859 27.5208 17.9807C27.5208 19.0642 27.3707 20.1131 27.0827 21.1034" stroke="#EBEAEF" stroke-width="1.92" stroke-linecap="round" stroke-linejoin="round"/>
<path opacity="0.4" d="M4.97519 21.2759C4.64132 20.2384 4.47998 19.1213 4.47998 17.9807C4.47998 14.9859 5.62058 12.2679 7.49839 10.2175" stroke="#EBEAEF" stroke-width="1.92" stroke-linecap="round" stroke-linejoin="round"/>
</svg>
