<svg width="24" height="24" viewBox="0 0 24 24" fill="none" xmlns="http://www.w3.org/2000/svg">
<g opacity="0.5">
<path fill-rule="evenodd" clip-rule="evenodd" d="M15.8601 7.07617H8.13977C5.44897 7.07617 3.76221 8.98149 3.76221 11.677V16.0377C3.76221 18.7341 5.44057 20.6385 8.13977 20.6385H15.8591C18.5584 20.6385 20.2385 18.7341 20.2385 16.0377V11.677C20.2385 8.98149 18.5584 7.07617 15.8601 7.07617Z" stroke="#615A70" stroke-width="1.44" stroke-linecap="round" stroke-linejoin="round"/>
<path d="M9.00928 11.1787C9.08026 11.8737 9.40154 12.4966 9.8639 12.9692C10.4168 13.5118 11.1733 13.8509 12.0017 13.8509C13.5513 13.8509 14.8252 12.6834 14.9942 11.1787" stroke="#615A70" stroke-width="1.44" stroke-linecap="round" stroke-linejoin="round"/>
<path d="M15.7153 7.07641C15.7153 5.02446 14.0519 3.36011 11.9991 3.36011C9.94707 3.36011 8.28369 5.02446 8.28369 7.07641" stroke="#615A70" stroke-width="1.44" stroke-linecap="round" stroke-linejoin="round"/>
</g>
</svg>
