<svg width="56" height="20" viewBox="0 0 56 20" fill="none" xmlns="http://www.w3.org/2000/svg">
<rect width="56" height="20" rx="4" fill="white"/>
<g clip-path="url(#clip0_939_1584)">
<path fill-rule="evenodd" clip-rule="evenodd" d="M14.9279 15.0579C14.9686 15.1306 15.0324 15.1876 15.1091 15.22C15.1556 15.2389 15.2052 15.249 15.2554 15.25C15.3142 15.2477 15.3717 15.2315 15.4232 15.2029C15.4747 15.1742 15.5187 15.1338 15.5516 15.085L20.4266 8.71008C20.466 8.65679 20.4905 8.59402 20.4977 8.52815C20.505 8.46228 20.4947 8.39567 20.4678 8.33509C20.4368 8.27198 20.3888 8.21882 20.3291 8.18169C20.2695 8.14456 20.2006 8.12495 20.1303 8.12509H18.3491L18.9978 5.20763C19.0102 5.15228 19.0099 5.09485 18.9969 5.03963C18.9839 4.98443 18.9586 4.93288 18.9228 4.88888C18.8875 4.84538 18.8429 4.81033 18.7923 4.78631C18.7417 4.76231 18.6863 4.74994 18.6303 4.75013H14.8804C14.7942 4.74783 14.7099 4.77528 14.6416 4.82787C14.5733 4.88047 14.5252 4.95498 14.5054 5.03888L14.2259 6.25H8.5V7.25H13.9951L13.649 8.75H9.50001V9.75H13.4182L13.3804 9.91382C13.3671 9.96971 13.3669 10.0279 13.3798 10.0839C13.3926 10.1399 13.4181 10.1922 13.4543 10.2368C13.4906 10.2813 13.5366 10.317 13.5887 10.341C13.6409 10.3649 13.698 10.3766 13.7554 10.3751H15.5666L15.4322 11.25H13V12.25H15.2786L14.8841 14.8187C14.8717 14.9011 14.8871 14.9852 14.9279 15.0579ZM11 11.25H12.5V12.25H11V11.25Z" fill="#285346"/>
<path d="M23.9366 7.78154C23.8616 7.78154 23.8061 7.75754 23.7701 7.70954C23.7371 7.66154 23.7251 7.59554 23.7341 7.51154L24.1661 4.80704C24.1781 4.72904 24.2066 4.67204 24.2516 4.63604C24.2966 4.59704 24.3566 4.57754 24.4316 4.57754H25.3856C25.7216 4.57754 25.9796 4.65104 26.1596 4.79804C26.3396 4.94504 26.4296 5.16104 26.4296 5.44604C26.4296 5.77604 26.3261 6.03704 26.1191 6.22904C25.9121 6.42104 25.6106 6.51704 25.2146 6.51704H24.3551L24.1931 7.55204C24.1811 7.63004 24.1541 7.68854 24.1121 7.72754C24.0701 7.76354 24.0116 7.78154 23.9366 7.78154ZM24.4181 6.14354H25.2416C25.4816 6.14354 25.6631 6.08654 25.7861 5.97254C25.9121 5.85854 25.9751 5.69354 25.9751 5.47754C25.9751 5.29754 25.9211 5.16554 25.8131 5.08154C25.7081 4.99454 25.5491 4.95104 25.3361 4.95104H24.6071L24.4181 6.14354ZM27.5868 7.79054C27.3708 7.79054 27.1833 7.75154 27.0243 7.67354C26.8683 7.59254 26.7468 7.47854 26.6598 7.33154C26.5758 7.18454 26.5338 7.01054 26.5338 6.80954C26.5338 6.56954 26.5833 6.35204 26.6823 6.15704C26.7813 5.96204 26.9193 5.80604 27.0963 5.68904C27.2763 5.57204 27.4848 5.51354 27.7218 5.51354C27.8988 5.51354 28.0473 5.54504 28.1673 5.60804C28.2873 5.66804 28.3818 5.75054 28.4508 5.85554C28.5198 5.96054 28.5648 6.07904 28.5858 6.21104C28.6098 6.34304 28.6143 6.47804 28.5993 6.61604C28.5933 6.67304 28.5783 6.71054 28.5543 6.72854C28.5303 6.74654 28.4958 6.75554 28.4508 6.75554H26.8938L26.9298 6.47654H28.3113L28.2303 6.53954C28.2513 6.40754 28.2468 6.28904 28.2168 6.18404C28.1898 6.07904 28.1358 5.99504 28.0548 5.93204C27.9738 5.86604 27.8613 5.83304 27.7173 5.83304C27.5703 5.83304 27.4458 5.86754 27.3438 5.93654C27.2448 6.00254 27.1668 6.08804 27.1098 6.19304C27.0558 6.29804 27.0183 6.40904 26.9973 6.52604L26.9793 6.64754C26.9373 6.88754 26.9733 7.07954 27.0873 7.22354C27.2043 7.36754 27.3813 7.43954 27.6183 7.43954C27.7173 7.43954 27.8163 7.42754 27.9153 7.40354C28.0143 7.37954 28.1058 7.34054 28.1898 7.28654C28.2378 7.25954 28.2798 7.24754 28.3158 7.25054C28.3548 7.25054 28.3848 7.26254 28.4058 7.28654C28.4298 7.31054 28.4448 7.34054 28.4508 7.37654C28.4568 7.40954 28.4508 7.44554 28.4328 7.48454C28.4178 7.52054 28.3893 7.55204 28.3473 7.57904C28.2453 7.65104 28.1238 7.70504 27.9828 7.74104C27.8418 7.77404 27.7098 7.79054 27.5868 7.79054ZM29.2028 7.78154C29.1338 7.78154 29.0828 7.75754 29.0498 7.70954C29.0168 7.66154 29.0063 7.59554 29.0183 7.51154L29.2973 5.74754C29.3093 5.67254 29.3378 5.61704 29.3828 5.58104C29.4278 5.54204 29.4863 5.52254 29.5583 5.52254C29.6243 5.52254 29.6738 5.54354 29.7068 5.58554C29.7398 5.62754 29.7488 5.69054 29.7338 5.77454L29.6843 6.10754L29.6573 6.03104C29.7323 5.86304 29.8403 5.73554 29.9813 5.64854C30.1253 5.55854 30.2948 5.51354 30.4898 5.51354C30.6518 5.51354 30.7868 5.54654 30.8948 5.61254C31.0058 5.67854 31.0838 5.77904 31.1288 5.91404C31.1768 6.04904 31.1843 6.22004 31.1513 6.42704L30.9758 7.55654C30.9668 7.63154 30.9398 7.68854 30.8948 7.72754C30.8498 7.76354 30.7898 7.78154 30.7148 7.78154C30.6428 7.78154 30.5903 7.75754 30.5573 7.70954C30.5243 7.66154 30.5138 7.59704 30.5258 7.51604L30.6968 6.43604C30.7268 6.24704 30.7118 6.10754 30.6518 6.01754C30.5918 5.92454 30.4838 5.87804 30.3278 5.87804C30.1268 5.87804 29.9663 5.93954 29.8463 6.06254C29.7293 6.18554 29.6543 6.35354 29.6213 6.56654L29.4638 7.55654C29.4428 7.70654 29.3558 7.78154 29.2028 7.78154ZM32.6281 8.60054C32.4511 8.60054 32.2846 8.57804 32.1286 8.53304C31.9726 8.49104 31.8346 8.43254 31.7146 8.35754C31.6726 8.33354 31.6441 8.30354 31.6291 8.26754C31.6171 8.23154 31.6156 8.19554 31.6246 8.15954C31.6336 8.12354 31.6501 8.09204 31.6741 8.06504C31.7011 8.04104 31.7326 8.02604 31.7686 8.02004C31.8076 8.01404 31.8496 8.02454 31.8946 8.05154C31.9936 8.11154 32.0986 8.15954 32.2096 8.19554C32.3206 8.23154 32.4391 8.24954 32.5651 8.24954C32.7541 8.24954 32.9056 8.20454 33.0196 8.11454C33.1366 8.02454 33.2116 7.88204 33.2446 7.68704L33.3211 7.21454L33.3571 7.21904C33.2851 7.36904 33.1786 7.48604 33.0376 7.57004C32.8966 7.65404 32.7361 7.69604 32.5561 7.69604C32.3791 7.69604 32.2246 7.66004 32.0926 7.58804C31.9636 7.51604 31.8616 7.41254 31.7866 7.27754C31.7146 7.14254 31.6786 6.98204 31.6786 6.79604C31.6786 6.62804 31.7041 6.46754 31.7551 6.31454C31.8061 6.15854 31.8796 6.02054 31.9756 5.90054C32.0716 5.78054 32.1871 5.68604 32.3221 5.61704C32.4601 5.54804 32.6161 5.51354 32.7901 5.51354C32.9671 5.51354 33.1231 5.55704 33.2581 5.64404C33.3931 5.72804 33.4861 5.85554 33.5371 6.02654L33.4876 6.11654L33.5461 5.74304C33.5581 5.66804 33.5851 5.61254 33.6271 5.57654C33.6721 5.54054 33.7306 5.52254 33.8026 5.52254C33.8746 5.52254 33.9256 5.54654 33.9556 5.59454C33.9856 5.63954 33.9946 5.70404 33.9826 5.78804L33.6856 7.66454C33.6376 7.97354 33.5251 8.20604 33.3481 8.36204C33.1741 8.52104 32.9341 8.60054 32.6281 8.60054ZM32.6866 7.34054C32.8426 7.34054 32.9746 7.29854 33.0826 7.21454C33.1906 7.13054 33.2716 7.01954 33.3256 6.88154C33.3826 6.74054 33.4111 6.59054 33.4111 6.43154C33.4111 6.25454 33.3631 6.11654 33.2671 6.01754C33.1711 5.91854 33.0346 5.86904 32.8576 5.86904C32.7046 5.86904 32.5741 5.91104 32.4661 5.99504C32.3581 6.07904 32.2756 6.19004 32.2186 6.32804C32.1646 6.46604 32.1376 6.61454 32.1376 6.77354C32.1376 6.95354 32.1856 7.09304 32.2816 7.19204C32.3776 7.29104 32.5126 7.34054 32.6866 7.34054ZM34.598 7.78154C34.529 7.78154 34.478 7.75904 34.445 7.71404C34.412 7.66604 34.4015 7.60004 34.4135 7.51604L34.697 5.74754C34.709 5.67254 34.736 5.61704 34.778 5.58104C34.823 5.54204 34.883 5.52254 34.958 5.52254C35.027 5.52254 35.078 5.54654 35.111 5.59454C35.144 5.63954 35.1545 5.70404 35.1425 5.78804L34.859 7.55654C34.847 7.63154 34.82 7.68854 34.778 7.72754C34.736 7.76354 34.676 7.78154 34.598 7.78154ZM35.0345 5.06354C34.9505 5.06354 34.8875 5.04254 34.8455 5.00054C34.8035 4.95854 34.7855 4.90004 34.7915 4.82504C34.8005 4.73504 34.8335 4.66754 34.8905 4.62254C34.9475 4.57454 35.0225 4.55054 35.1155 4.55054C35.2025 4.55054 35.267 4.57154 35.309 4.61354C35.351 4.65554 35.369 4.71404 35.363 4.78904C35.354 4.87904 35.321 4.94804 35.264 4.99604C35.21 5.04104 35.1335 5.06354 35.0345 5.06354ZM35.7642 7.78154C35.6922 7.78154 35.6397 7.75904 35.6067 7.71404C35.5737 7.66904 35.5632 7.60604 35.5752 7.52504L35.8587 5.74304C35.8707 5.66804 35.8977 5.61254 35.9397 5.57654C35.9847 5.54054 36.0432 5.52254 36.1152 5.52254C36.1842 5.52254 36.2352 5.54504 36.2682 5.59004C36.3012 5.63204 36.3117 5.69504 36.2997 5.77904L36.2502 6.08054H36.2052C36.2652 5.90354 36.3672 5.76704 36.5112 5.67104C36.6552 5.57204 36.8202 5.51804 37.0062 5.50904C37.0812 5.50604 37.1307 5.51654 37.1547 5.54054C37.1817 5.56454 37.1952 5.60654 37.1952 5.66654C37.1952 5.74454 37.1772 5.80154 37.1412 5.83754C37.1052 5.87354 37.0467 5.89604 36.9657 5.90504L36.8577 5.91854C36.6357 5.93954 36.4767 6.00554 36.3807 6.11654C36.2847 6.22754 36.2202 6.37904 36.1872 6.57104L36.0297 7.56554C36.0207 7.63754 35.9937 7.69154 35.9487 7.72754C35.9037 7.76354 35.8422 7.78154 35.7642 7.78154ZM37.5059 7.78154C37.4369 7.78154 37.3859 7.75904 37.3529 7.71404C37.3199 7.66604 37.3094 7.60004 37.3214 7.51604L37.6049 5.74754C37.6169 5.67254 37.6439 5.61704 37.6859 5.58104C37.7309 5.54204 37.7909 5.52254 37.8659 5.52254C37.9349 5.52254 37.9859 5.54654 38.0189 5.59454C38.0519 5.63954 38.0624 5.70404 38.0504 5.78804L37.7669 7.55654C37.7549 7.63154 37.7279 7.68854 37.6859 7.72754C37.6439 7.76354 37.5839 7.78154 37.5059 7.78154ZM37.9424 5.06354C37.8584 5.06354 37.7954 5.04254 37.7534 5.00054C37.7114 4.95854 37.6934 4.90004 37.6994 4.82504C37.7084 4.73504 37.7414 4.66754 37.7984 4.62254C37.8554 4.57454 37.9304 4.55054 38.0234 4.55054C38.1104 4.55054 38.1749 4.57154 38.2169 4.61354C38.2589 4.65554 38.2769 4.71404 38.2709 4.78904C38.2619 4.87904 38.2289 4.94804 38.1719 4.99604C38.1179 5.04104 38.0414 5.06354 37.9424 5.06354ZM38.6766 7.78154C38.6076 7.78154 38.5566 7.75904 38.5236 7.71404C38.4906 7.66904 38.4801 7.60604 38.4921 7.52504L38.7756 5.74304C38.7876 5.66804 38.8146 5.61254 38.8566 5.57654C38.9016 5.54054 38.9586 5.52254 39.0276 5.52254C39.0966 5.52254 39.1476 5.54504 39.1806 5.59004C39.2136 5.63504 39.2241 5.69804 39.2121 5.77904L39.1581 6.12104L39.1221 6.04004C39.2061 5.86304 39.3156 5.73104 39.4506 5.64404C39.5886 5.55704 39.7386 5.51354 39.9006 5.51354C40.0716 5.51354 40.2111 5.56004 40.3191 5.65304C40.4301 5.74304 40.5006 5.87654 40.5306 6.05354L40.4721 6.03554C40.5471 5.86754 40.6536 5.73854 40.7916 5.64854C40.9326 5.55854 41.0976 5.51354 41.2866 5.51354C41.4396 5.51354 41.5686 5.54654 41.6736 5.61254C41.7816 5.67854 41.8566 5.77904 41.8986 5.91404C41.9406 6.04904 41.9451 6.22154 41.9121 6.43154L41.7321 7.56554C41.7231 7.63454 41.6976 7.68854 41.6556 7.72754C41.6136 7.76354 41.5551 7.78154 41.4801 7.78154C41.4051 7.78154 41.3511 7.75904 41.3181 7.71404C41.2851 7.66904 41.2746 7.60604 41.2866 7.52504L41.4576 6.41804C41.4846 6.23804 41.4711 6.10304 41.4171 6.01304C41.3631 5.92304 41.2656 5.87804 41.1246 5.87804C40.9596 5.87804 40.8216 5.93954 40.7106 6.06254C40.6026 6.18254 40.5306 6.35054 40.4946 6.56654L40.3416 7.56554C40.3296 7.63454 40.3011 7.68854 40.2561 7.72754C40.2111 7.76354 40.1526 7.78154 40.0806 7.78154C40.0086 7.78154 39.9546 7.75904 39.9186 7.71404C39.8856 7.66904 39.8751 7.60604 39.8871 7.52504L40.0671 6.41804C40.0941 6.23804 40.0791 6.10304 40.0221 6.01304C39.9681 5.92304 39.8721 5.87804 39.7341 5.87804C39.5661 5.87804 39.4266 5.93954 39.3156 6.06254C39.2076 6.18254 39.1356 6.35054 39.0996 6.56654L38.9421 7.56554C38.9211 7.70954 38.8326 7.78154 38.6766 7.78154ZM43.1506 7.79054C43.0216 7.79054 42.9016 7.76204 42.7906 7.70504C42.6796 7.64504 42.5911 7.56554 42.5251 7.46654C42.4591 7.36454 42.4261 7.25054 42.4261 7.12454C42.4261 6.96854 42.4681 6.84254 42.5521 6.74654C42.6391 6.65054 42.7741 6.58004 42.9571 6.53504C43.1401 6.48704 43.3756 6.46304 43.6636 6.46304H44.0236L43.9831 6.74204H43.7041C43.4971 6.74204 43.3321 6.75254 43.2091 6.77354C43.0891 6.79454 43.0036 6.83204 42.9526 6.88604C42.9016 6.93704 42.8761 7.00754 42.8761 7.09754C42.8761 7.21754 42.9151 7.30904 42.9931 7.37204C43.0741 7.43504 43.1701 7.46654 43.2811 7.46654C43.3831 7.46654 43.4776 7.44404 43.5646 7.39904C43.6516 7.35404 43.7251 7.28954 43.7851 7.20554C43.8481 7.11854 43.8886 7.01504 43.9066 6.89504L43.9921 6.35504C44.0191 6.19604 43.9966 6.07454 43.9246 5.99054C43.8556 5.90654 43.7311 5.86454 43.5511 5.86454C43.4461 5.86454 43.3441 5.87504 43.2451 5.89604C43.1491 5.91704 43.0516 5.95304 42.9526 6.00404C42.9076 6.02804 42.8656 6.03704 42.8266 6.03104C42.7876 6.02204 42.7561 6.00554 42.7321 5.98154C42.7081 5.95454 42.6946 5.92304 42.6916 5.88704C42.6886 5.85104 42.6976 5.81504 42.7186 5.77904C42.7426 5.74304 42.7816 5.71154 42.8356 5.68454C42.9556 5.62454 43.0831 5.58104 43.2181 5.55404C43.3531 5.52704 43.4821 5.51354 43.6051 5.51354C43.8241 5.51354 43.9966 5.55404 44.1226 5.63504C44.2516 5.71604 44.3386 5.82854 44.3836 5.97254C44.4316 6.11654 44.4406 6.28304 44.4106 6.47204L44.2396 7.55654C44.2306 7.63154 44.2036 7.68854 44.1586 7.72754C44.1166 7.76354 44.0611 7.78154 43.9921 7.78154C43.9261 7.78154 43.8766 7.76054 43.8436 7.71854C43.8106 7.67354 43.8001 7.61054 43.8121 7.52954L43.8616 7.20104L43.8976 7.26854C43.8586 7.38554 43.7986 7.48454 43.7176 7.56554C43.6396 7.64354 43.5511 7.70054 43.4521 7.73654C43.3561 7.77254 43.2556 7.79054 43.1506 7.79054ZM45.1221 7.78154C45.0531 7.78154 45.0021 7.75754 44.9691 7.70954C44.9361 7.66154 44.9256 7.59554 44.9376 7.51154L45.2166 5.74754C45.2286 5.67254 45.2571 5.61704 45.3021 5.58104C45.3471 5.54204 45.4056 5.52254 45.4776 5.52254C45.5436 5.52254 45.5931 5.54354 45.6261 5.58554C45.6591 5.62754 45.6681 5.69054 45.6531 5.77454L45.6036 6.10754L45.5766 6.03104C45.6516 5.86304 45.7596 5.73554 45.9006 5.64854C46.0446 5.55854 46.2141 5.51354 46.4091 5.51354C46.5711 5.51354 46.7061 5.54654 46.8141 5.61254C46.9251 5.67854 47.0031 5.77904 47.0481 5.91404C47.0961 6.04904 47.1036 6.22004 47.0706 6.42704L46.8951 7.55654C46.8861 7.63154 46.8591 7.68854 46.8141 7.72754C46.7691 7.76354 46.7091 7.78154 46.6341 7.78154C46.5621 7.78154 46.5096 7.75754 46.4766 7.70954C46.4436 7.66154 46.4331 7.59704 46.4451 7.51604L46.6161 6.43604C46.6461 6.24704 46.6311 6.10754 46.5711 6.01754C46.5111 5.92454 46.4031 5.87804 46.2471 5.87804C46.0461 5.87804 45.8856 5.93954 45.7656 6.06254C45.6486 6.18554 45.5736 6.35354 45.5406 6.56654L45.3831 7.55654C45.3621 7.70654 45.2751 7.78154 45.1221 7.78154Z" fill="#285346"/>
<path d="M24.1721 15.3041C24.0121 15.3041 23.8981 15.2561 23.8301 15.1601C23.762 15.0601 23.7421 14.9241 23.7701 14.7521L24.2981 11.4341C24.3221 11.2781 24.3781 11.1621 24.4661 11.0861C24.554 11.0061 24.674 10.9661 24.8261 10.9661C24.9821 10.9661 25.0921 11.0141 25.1561 11.1101C25.2241 11.2061 25.244 11.3421 25.2161 11.5181L24.6881 14.8301C24.6641 14.9861 24.6101 15.1041 24.5261 15.1841C24.4421 15.2641 24.3241 15.3041 24.1721 15.3041ZM25.9233 15.3041C25.7873 15.3041 25.6833 15.2601 25.6113 15.1721C25.5433 15.0801 25.5213 14.9521 25.5453 14.7881L26.0913 11.3621C26.1153 11.2301 26.1633 11.1321 26.2353 11.0681C26.3113 11.0001 26.4053 10.9661 26.5173 10.9661C26.6373 10.9661 26.7273 10.9901 26.7873 11.0381C26.8513 11.0821 26.9153 11.1561 26.9793 11.2601L28.6293 14.0201H28.4673L28.8813 11.3981C28.9053 11.2501 28.9573 11.1421 29.0373 11.0741C29.1213 11.0021 29.2353 10.9661 29.3793 10.9661C29.5153 10.9661 29.6133 11.0121 29.6733 11.1041C29.7373 11.1921 29.7573 11.3161 29.7333 11.4761L29.1933 14.9021C29.1733 15.0341 29.1293 15.1341 29.0613 15.2021C28.9933 15.2701 28.9033 15.3041 28.7913 15.3041C28.6713 15.3041 28.5753 15.2801 28.5033 15.2321C28.4313 15.1841 28.3633 15.1081 28.2993 15.0041L26.6493 12.2501H26.8113L26.3973 14.8721C26.3773 15.0161 26.3293 15.1241 26.2533 15.1961C26.1773 15.2681 26.0673 15.3041 25.9233 15.3041ZM31.605 15.3161C31.4411 15.3161 31.277 15.3041 31.113 15.2801C30.9491 15.2561 30.7871 15.2201 30.627 15.1721C30.471 15.1201 30.3251 15.0581 30.189 14.9861C30.0971 14.9341 30.033 14.8701 29.997 14.7941C29.9651 14.7141 29.955 14.6341 29.967 14.5541C29.979 14.4741 30.011 14.4041 30.063 14.3441C30.1151 14.2801 30.1811 14.2401 30.261 14.2241C30.341 14.2041 30.4331 14.2201 30.537 14.2721C30.7211 14.3681 30.9131 14.4381 31.113 14.4821C31.317 14.5221 31.509 14.5421 31.689 14.5421C31.9451 14.5421 32.1431 14.4961 32.283 14.4041C32.427 14.3121 32.499 14.1941 32.499 14.0501C32.499 13.9341 32.457 13.8381 32.373 13.7621C32.289 13.6861 32.1491 13.6261 31.953 13.5821L31.275 13.4201C30.9791 13.3521 30.743 13.2261 30.567 13.0421C30.395 12.8581 30.309 12.6201 30.309 12.3281C30.309 12.1121 30.353 11.9201 30.441 11.7521C30.533 11.5801 30.659 11.4361 30.819 11.3201C30.983 11.2001 31.169 11.1101 31.377 11.0501C31.589 10.9861 31.811 10.9541 32.043 10.9541C32.243 10.9541 32.459 10.9801 32.691 11.0321C32.927 11.0841 33.1451 11.1701 33.345 11.2901C33.425 11.3381 33.4811 11.4001 33.513 11.4761C33.545 11.5481 33.555 11.6241 33.543 11.7041C33.5351 11.7801 33.5051 11.8461 33.453 11.9021C33.405 11.9581 33.3371 11.9941 33.249 12.0101C33.165 12.0221 33.063 12.0001 32.943 11.9441C32.811 11.8761 32.663 11.8241 32.499 11.7881C32.339 11.7481 32.183 11.7281 32.031 11.7281C31.871 11.7281 31.7291 11.7501 31.605 11.7941C31.485 11.8381 31.391 11.8981 31.323 11.9741C31.259 12.0501 31.227 12.1401 31.227 12.2441C31.227 12.3641 31.265 12.4601 31.341 12.5321C31.421 12.6001 31.539 12.6541 31.695 12.6941L32.367 12.8561C32.711 12.9361 32.9711 13.0701 33.147 13.2581C33.327 13.4461 33.417 13.6721 33.417 13.9361C33.417 14.1681 33.369 14.3701 33.273 14.5421C33.177 14.7141 33.0431 14.8581 32.871 14.9741C32.703 15.0861 32.5091 15.1721 32.289 15.2321C32.073 15.2881 31.845 15.3161 31.605 15.3161ZM35.2229 15.3041C35.0709 15.3041 34.9589 15.2561 34.8869 15.1601C34.8189 15.0601 34.7989 14.9261 34.8269 14.7581L35.2949 11.7881H34.3109C34.1829 11.7881 34.0829 11.7601 34.0109 11.7041C33.9389 11.6481 33.9029 11.5721 33.9029 11.4761C33.9029 11.3321 33.9429 11.2201 34.0229 11.1401C34.1069 11.0601 34.2209 11.0201 34.3649 11.0201H37.3349C37.4669 11.0201 37.5669 11.0481 37.6349 11.1041C37.7069 11.1561 37.7429 11.2301 37.7429 11.3261C37.7429 11.4701 37.7029 11.5841 37.6229 11.6681C37.5429 11.7481 37.4309 11.7881 37.2869 11.7881H36.2309L35.7449 14.8361C35.7209 14.9881 35.6649 15.1041 35.5769 15.1841C35.4929 15.2641 35.3749 15.3041 35.2229 15.3041ZM37.2193 15.3041C37.1113 15.3041 37.0193 15.2801 36.9433 15.2321C36.8713 15.1801 36.8293 15.1141 36.8173 15.0341C36.8013 14.9501 36.8233 14.8581 36.8833 14.7581L39.0313 11.2841C39.0993 11.1721 39.1733 11.0921 39.2533 11.0441C39.3333 10.9921 39.4353 10.9661 39.5593 10.9661C39.6833 10.9661 39.7853 10.9981 39.8653 11.0621C39.9493 11.1261 40.0093 11.2221 40.0453 11.3501L41.0593 14.7401C41.0953 14.8641 41.1013 14.9681 41.0773 15.0521C41.0533 15.1321 41.0073 15.1941 40.9393 15.2381C40.8713 15.2821 40.7893 15.3041 40.6933 15.3041C40.5573 15.3041 40.4533 15.2721 40.3813 15.2081C40.3133 15.1401 40.2613 15.0361 40.2253 14.8961L40.0273 14.1401L40.2973 14.3321H37.8613L38.1913 14.1581L37.6813 15.0341C37.6293 15.1221 37.5653 15.1901 37.4893 15.2381C37.4173 15.2821 37.3273 15.3041 37.2193 15.3041ZM39.4513 12.0101L38.4193 13.7741L38.2873 13.6061H40.1113L39.9313 13.7921L39.4633 12.0101H39.4513ZM42.0249 15.3041C41.8889 15.3041 41.7849 15.2601 41.7129 15.1721C41.6449 15.0801 41.6229 14.9521 41.6469 14.7881L42.1929 11.3621C42.2169 11.2301 42.2649 11.1321 42.3369 11.0681C42.4129 11.0001 42.5069 10.9661 42.6189 10.9661C42.7389 10.9661 42.8289 10.9901 42.8889 11.0381C42.9529 11.0821 43.0169 11.1561 43.0809 11.2601L44.7309 14.0201H44.5689L44.9829 11.3981C45.0069 11.2501 45.0589 11.1421 45.1389 11.0741C45.2229 11.0021 45.3369 10.9661 45.4809 10.9661C45.6169 10.9661 45.7149 11.0121 45.7749 11.1041C45.8389 11.1921 45.8589 11.3161 45.8349 11.4761L45.2949 14.9021C45.2749 15.0341 45.2309 15.1341 45.1629 15.2021C45.0949 15.2701 45.0049 15.3041 44.8929 15.3041C44.7729 15.3041 44.6769 15.2801 44.6049 15.2321C44.5329 15.1841 44.4649 15.1081 44.4009 15.0041L42.7509 12.2501H42.9129L42.4989 14.8721C42.4789 15.0161 42.4309 15.1241 42.3549 15.1961C42.2789 15.2681 42.1689 15.3041 42.0249 15.3041Z" fill="#285346"/>
</g>
<defs>
<clipPath id="clip0_939_1584">
<rect width="48" height="12" fill="white" transform="translate(4 4)"/>
</clipPath>
</defs>
</svg>
