<svg width="1478" height="161" viewBox="0 0 1478 161" fill="none" xmlns="http://www.w3.org/2000/svg">
<g clip-path="url(#clip0_396_96)">
<rect width="1478" height="161" fill="#4D4D4D"/>
<g clip-path="url(#clip1_396_96)">
<g clip-path="url(#clip2_396_96)">
<mask id="mask0_396_96" style="mask-type:luminance" maskUnits="userSpaceOnUse" x="-61" y="0" width="1601" height="834">
<path d="M-60.6001 833.333H1539.4V-6.10352e-05H-60.6001V833.333Z" fill="white"/>
</mask>
<g mask="url(#mask0_396_96)">
<path opacity="0.1" d="M385.65 547.333L1378.82 -445.833L1556.73 -443.333L386.9 726.5L385.65 547.333Z" fill="url(#paint0_linear_396_96)"/>
</g>
<mask id="mask1_396_96" style="mask-type:luminance" maskUnits="userSpaceOnUse" x="-61" y="0" width="1601" height="834">
<path d="M-60.6001 833.333H1539.4V-6.10352e-05H-60.6001V833.333Z" fill="white"/>
</mask>
<g mask="url(#mask1_396_96)">
<path opacity="0.1" d="M-60.3502 459.75L406.9 -7.50012L490.566 -6.33344L-59.7669 544.083L-60.3502 459.75Z" fill="url(#paint1_linear_396_96)"/>
</g>
<mask id="mask2_396_96" style="mask-type:luminance" maskUnits="userSpaceOnUse" x="-61" y="0" width="1601" height="834">
<path d="M-60.6001 833.333H1539.4V-6.10352e-05H-60.6001V833.333Z" fill="white"/>
</mask>
<g mask="url(#mask2_396_96)">
<path opacity="0.1" d="M558.817 404.75L1026.07 -62.5001L1109.73 -61.3334L559.4 489.083L558.817 404.75Z" fill="url(#paint2_linear_396_96)"/>
</g>
<mask id="mask3_396_96" style="mask-type:luminance" maskUnits="userSpaceOnUse" x="-61" y="0" width="1601" height="834">
<path d="M-60.6001 833.333H1539.4V-6.10352e-05H-60.6001V833.333Z" fill="white"/>
</mask>
<g mask="url(#mask3_396_96)">
<path opacity="0.1" d="M1002.15 452.25L1469.4 -15.0001L1553.07 -13.8334L1002.73 536.583L1002.15 452.25Z" fill="url(#paint3_linear_396_96)"/>
</g>
<mask id="mask4_396_96" style="mask-type:luminance" maskUnits="userSpaceOnUse" x="-61" y="0" width="1601" height="834">
<path d="M-60.6001 833.333H1539.4V-6.10352e-05H-60.6001V833.333Z" fill="white"/>
</mask>
<g mask="url(#mask4_396_96)">
<path opacity="0.1" d="M382.983 459.75L850.233 -7.50012L933.9 -6.33344L383.567 544.083L382.983 459.75Z" fill="url(#paint4_linear_396_96)"/>
</g>
<mask id="mask5_396_96" style="mask-type:luminance" maskUnits="userSpaceOnUse" x="-61" y="0" width="1601" height="834">
<path d="M-60.6001 833.333H1539.4V-6.10352e-05H-60.6001V833.333Z" fill="white"/>
</mask>
<g mask="url(#mask5_396_96)">
<path opacity="0.1" d="M497.65 421.833L951.817 -32.3334L995.733 -68.6667L460.817 466.25L497.65 421.833Z" fill="url(#paint5_linear_396_96)"/>
</g>
<mask id="mask6_396_96" style="mask-type:luminance" maskUnits="userSpaceOnUse" x="-61" y="0" width="1601" height="834">
<path d="M-60.6001 833.333H1539.4V-6.10352e-05H-60.6001V833.333Z" fill="white"/>
</mask>
<g mask="url(#mask6_396_96)">
<path opacity="0.1" d="M796.816 300.75L2187.73 -1090.25L2436.82 -1086.75L798.566 551.583L796.816 300.75Z" fill="url(#paint6_linear_396_96)"/>
</g>
<mask id="mask7_396_96" style="mask-type:luminance" maskUnits="userSpaceOnUse" x="-61" y="0" width="1601" height="834">
<path d="M-60.6001 833.333H1539.4V-6.10352e-05H-60.6001V833.333Z" fill="white"/>
</mask>
<g mask="url(#mask7_396_96)">
<path opacity="0.1" d="M-19.267 483.5L1563.4 -1099.17L1846.82 -1095.17L-17.2668 768.917L-19.267 483.5Z" fill="url(#paint7_linear_396_96)"/>
</g>
<mask id="mask8_396_96" style="mask-type:luminance" maskUnits="userSpaceOnUse" x="-61" y="0" width="1601" height="834">
<path d="M-60.6001 833.333H1539.4V-6.10352e-05H-60.6001V833.333Z" fill="white"/>
</mask>
<g mask="url(#mask8_396_96)">
<path opacity="0.1" d="M782.4 469.333L2365.07 -1113.33L2648.48 -1109.33L784.4 754.75L782.4 469.333Z" fill="url(#paint8_linear_396_96)"/>
</g>
<mask id="mask9_396_96" style="mask-type:luminance" maskUnits="userSpaceOnUse" x="-61" y="0" width="1601" height="834">
<path d="M-60.6001 833.333H1539.4V-6.10352e-05H-60.6001V833.333Z" fill="white"/>
</mask>
<g mask="url(#mask9_396_96)">
<path opacity="0.1" d="M179.067 403.5L1761.73 -1179.17L2045.15 -1175.17L181.067 688.917L179.067 403.5Z" fill="url(#paint9_linear_396_96)"/>
</g>
<mask id="mask10_396_96" style="mask-type:luminance" maskUnits="userSpaceOnUse" x="-61" y="0" width="1601" height="834">
<path d="M-60.6001 833.333H1539.4V-6.10352e-05H-60.6001V833.333Z" fill="white"/>
</mask>
<g mask="url(#mask10_396_96)">
<path opacity="0.1" d="M559.15 360.75L2744.07 -1824.17L3135.32 -1818.67L561.9 754.75L559.15 360.75Z" fill="url(#paint10_linear_396_96)"/>
</g>
<mask id="mask11_396_96" style="mask-type:luminance" maskUnits="userSpaceOnUse" x="-61" y="0" width="1601" height="834">
<path d="M-60.6001 833.333H1539.4V-6.10352e-05H-60.6001V833.333Z" fill="white"/>
</mask>
<g mask="url(#mask11_396_96)">
<path opacity="0.1" d="M349.983 349.917L2534.9 -1835L2926.15 -1829.5L352.733 743.917L349.983 349.917Z" fill="url(#paint11_linear_396_96)"/>
</g>
<mask id="mask12_396_96" style="mask-type:luminance" maskUnits="userSpaceOnUse" x="-130" y="0" width="1600" height="834">
<path d="M-130 833.333H1470V-6.10352e-05H-130V833.333Z" fill="white"/>
</mask>
<g mask="url(#mask12_396_96)">
<path opacity="0.1" d="M95.4166 99.8333L1088.58 -893.333L1266.5 -890.833L96.6666 279L95.4166 99.8333Z" fill="url(#paint12_linear_396_96)"/>
</g>
<path d="M388.224 42V29.436H395.784V31.686H390.798V34.53H395.028V36.762H390.798V42H388.224ZM401.208 42H398.634V29.436H404.07C405.198 29.436 406.056 29.79 406.644 30.498C407.232 31.206 407.526 32.154 407.526 33.342C407.526 34.266 407.352 35.046 407.004 35.682C406.656 36.318 406.14 36.762 405.456 37.014L407.652 42H404.862L402.918 37.248H401.208V42ZM403.746 35.106C404.094 35.106 404.364 35.022 404.556 34.854C404.76 34.674 404.862 34.368 404.862 33.936V32.856C404.862 32.424 404.76 32.124 404.556 31.956C404.364 31.776 404.094 31.686 403.746 31.686H401.208V35.106H403.746ZM410.52 42V29.436H418.296V31.686H413.094V34.53H417.504V36.762H413.094V39.75H418.296V42H410.52ZM421.299 42V29.436H429.075V31.686H423.873V34.53H428.283V36.762H423.873V39.75H429.075V42H421.299ZM436.792 42V29.436H444.352V31.686H439.366V34.53H443.596V36.762H439.366V42H436.792ZM446.788 42V39.966H448.264V31.47H446.788V29.436H452.314V31.47H450.838V39.966H452.314V42H446.788ZM457.83 42H455.256V29.436H460.692C461.82 29.436 462.678 29.79 463.266 30.498C463.854 31.206 464.148 32.154 464.148 33.342C464.148 34.266 463.974 35.046 463.626 35.682C463.278 36.318 462.762 36.762 462.078 37.014L464.274 42H461.484L459.54 37.248H457.83V42ZM460.368 35.106C460.716 35.106 460.986 35.022 461.178 34.854C461.382 34.674 461.484 34.368 461.484 33.936V32.856C461.484 32.424 461.382 32.124 461.178 31.956C460.986 31.776 460.716 31.686 460.368 31.686H457.83V35.106H460.368ZM467.143 42V29.436H474.919V31.686H469.717V34.53H474.127V36.762H469.717V39.75H474.919V42H467.143Z" fill="#FAFAF9"/>
</g>
</g>
<path d="M393.664 69.352H393.472C393.365 69.8853 393.093 70.328 392.656 70.68C392.219 71.0213 391.6 71.192 390.8 71.192C390.224 71.192 389.691 71.0853 389.2 70.872C388.72 70.6587 388.299 70.3227 387.936 69.864C387.573 69.3947 387.291 68.7973 387.088 68.072C386.885 67.336 386.784 66.456 386.784 65.432C386.784 64.408 386.88 63.5333 387.072 62.808C387.275 62.072 387.563 61.4693 387.936 61C388.32 60.5307 388.779 60.1893 389.312 59.976C389.845 59.752 390.448 59.64 391.12 59.64C392.112 59.64 392.917 59.8533 393.536 60.28C394.155 60.7067 394.635 61.3147 394.976 62.104L393.584 62.92C393.392 62.376 393.099 61.944 392.704 61.624C392.32 61.304 391.797 61.144 391.136 61.144C390.336 61.144 389.712 61.4 389.264 61.912C388.827 62.424 388.608 63.1387 388.608 64.056V66.776C388.608 67.6933 388.827 68.408 389.264 68.92C389.712 69.432 390.336 69.688 391.136 69.688C391.467 69.688 391.776 69.64 392.064 69.544C392.352 69.448 392.603 69.3093 392.816 69.128C393.04 68.9467 393.211 68.7227 393.328 68.456C393.456 68.1787 393.52 67.8693 393.52 67.528V66.552H391.456V65.096H395.168V71H393.664V69.352ZM402.62 71C402.215 71 401.9 70.888 401.676 70.664C401.452 70.44 401.34 70.088 401.34 69.608H401.148C401.031 70.1093 400.786 70.4987 400.412 70.776C400.05 71.0533 399.602 71.192 399.068 71.192C398.279 71.192 397.687 70.984 397.292 70.568C396.908 70.1413 396.716 69.544 396.716 68.776C396.716 67.944 396.983 67.3093 397.516 66.872C398.05 66.4347 398.834 66.216 399.868 66.216H401.244V65.416C401.244 64.8827 401.127 64.4933 400.892 64.248C400.658 63.992 400.284 63.864 399.772 63.864C399.378 63.864 399.036 63.9493 398.748 64.12C398.471 64.2907 398.215 64.5787 397.98 64.984L397.004 64.088C397.282 63.6187 397.655 63.2347 398.124 62.936C398.604 62.6373 399.191 62.488 399.884 62.488C400.887 62.488 401.639 62.7333 402.14 63.224C402.642 63.704 402.892 64.4133 402.892 65.352V69.64H403.676V71H402.62ZM399.612 69.912C399.847 69.912 400.06 69.8747 400.252 69.8C400.455 69.7253 400.626 69.624 400.764 69.496C400.914 69.368 401.031 69.2187 401.116 69.048C401.202 68.8667 401.244 68.6747 401.244 68.472V67.32H399.948C398.914 67.32 398.396 67.6933 398.396 68.44V68.824C398.396 69.1973 398.503 69.4747 398.716 69.656C398.94 69.8267 399.239 69.912 399.612 69.912ZM405.229 71V62.68H406.877V64.328H407.069C407.187 63.7947 407.405 63.3893 407.725 63.112C408.056 62.824 408.472 62.68 408.973 62.68H409.389V64.36H408.685C408.099 64.36 407.651 64.472 407.341 64.696C407.032 64.92 406.877 65.2773 406.877 65.768V71H405.229ZM413.753 71.192C413.231 71.192 412.751 71.1067 412.313 70.936C411.876 70.7653 411.503 70.504 411.193 70.152C410.884 69.7893 410.639 69.336 410.457 68.792C410.287 68.248 410.201 67.5973 410.201 66.84C410.201 66.0827 410.281 65.432 410.441 64.888C410.601 64.3333 410.831 63.88 411.129 63.528C411.439 63.176 411.801 62.9147 412.217 62.744C412.644 62.5733 413.124 62.488 413.657 62.488C414.713 62.488 415.535 62.8347 416.121 63.528C416.719 64.2213 417.017 65.3253 417.017 66.84V67.256H411.929V67.784C411.929 68.4453 412.095 68.952 412.425 69.304C412.767 69.656 413.231 69.832 413.817 69.832C414.319 69.832 414.729 69.72 415.049 69.496C415.38 69.272 415.657 68.9573 415.881 68.552L416.841 69.464C416.543 69.9867 416.137 70.408 415.625 70.728C415.124 71.0373 414.5 71.192 413.753 71.192ZM413.657 63.8C413.103 63.8 412.676 63.9707 412.377 64.312C412.079 64.6427 411.929 65.144 411.929 65.816V66.152H415.273V65.816C415.273 64.472 414.735 63.8 413.657 63.8ZM418.745 71V62.68H420.393V64.056H420.585C420.916 63.0107 421.598 62.488 422.633 62.488C423.38 62.488 423.956 62.744 424.361 63.256C424.777 63.7573 424.985 64.4987 424.985 65.48V71H423.337V65.704C423.337 65.1173 423.225 64.6693 423.001 64.36C422.777 64.0507 422.425 63.896 421.945 63.896C421.508 63.896 421.14 64.0293 420.841 64.296C420.542 64.552 420.393 64.9147 420.393 65.384V71H418.745ZM432.495 71C432.09 71 431.775 70.888 431.551 70.664C431.327 70.44 431.215 70.088 431.215 69.608H431.023C430.906 70.1093 430.661 70.4987 430.287 70.776C429.925 71.0533 429.477 71.192 428.943 71.192C428.154 71.192 427.562 70.984 427.167 70.568C426.783 70.1413 426.591 69.544 426.591 68.776C426.591 67.944 426.858 67.3093 427.391 66.872C427.925 66.4347 428.709 66.216 429.743 66.216H431.119V65.416C431.119 64.8827 431.002 64.4933 430.767 64.248C430.533 63.992 430.159 63.864 429.647 63.864C429.253 63.864 428.911 63.9493 428.623 64.12C428.346 64.2907 428.09 64.5787 427.855 64.984L426.879 64.088C427.157 63.6187 427.53 63.2347 427.999 62.936C428.479 62.6373 429.066 62.488 429.759 62.488C430.762 62.488 431.514 62.7333 432.015 63.224C432.517 63.704 432.767 64.4133 432.767 65.352V69.64H433.551V71H432.495ZM429.487 69.912C429.722 69.912 429.935 69.8747 430.127 69.8C430.33 69.7253 430.501 69.624 430.639 69.496C430.789 69.368 430.906 69.2187 430.991 69.048C431.077 68.8667 431.119 68.6747 431.119 68.472V67.32H429.823C428.789 67.32 428.271 67.6933 428.271 68.44V68.824C428.271 69.1973 428.378 69.4747 428.591 69.656C428.815 69.8267 429.114 69.912 429.487 69.912Z" fill="#FAFAF9"/>
<path d="M428.924 115V106.624H432.236C432.956 106.624 433.496 106.84 433.856 107.272C434.224 107.696 434.408 108.312 434.408 109.12C434.408 109.928 434.224 110.548 433.856 110.98C433.496 111.404 432.956 111.616 432.236 111.616H430.196V115H428.924ZM430.196 110.488H432.128C432.432 110.488 432.66 110.412 432.812 110.26C432.972 110.1 433.052 109.848 433.052 109.504V108.736C433.052 108.392 432.972 108.144 432.812 107.992C432.66 107.832 432.432 107.752 432.128 107.752H430.196V110.488ZM435.543 115V108.76H436.779V109.996H436.923C437.011 109.596 437.175 109.292 437.415 109.084C437.663 108.868 437.975 108.76 438.351 108.76H438.663V110.02H438.135C437.695 110.02 437.359 110.104 437.127 110.272C436.895 110.44 436.779 110.708 436.779 111.076V115H435.543ZM441.864 115.144C441.464 115.144 441.104 115.08 440.784 114.952C440.472 114.824 440.2 114.628 439.968 114.364C439.744 114.1 439.572 113.764 439.452 113.356C439.332 112.94 439.272 112.448 439.272 111.88C439.272 111.312 439.332 110.824 439.452 110.416C439.572 110 439.744 109.66 439.968 109.396C440.2 109.132 440.472 108.936 440.784 108.808C441.104 108.68 441.464 108.616 441.864 108.616C442.256 108.616 442.612 108.68 442.932 108.808C443.252 108.936 443.524 109.132 443.748 109.396C443.98 109.66 444.156 110 444.276 110.416C444.396 110.824 444.456 111.312 444.456 111.88C444.456 112.448 444.396 112.94 444.276 113.356C444.156 113.764 443.98 114.1 443.748 114.364C443.524 114.628 443.252 114.824 442.932 114.952C442.612 115.08 442.256 115.144 441.864 115.144ZM441.864 114.112C442.28 114.112 442.596 113.988 442.812 113.74C443.036 113.492 443.148 113.116 443.148 112.612V111.148C443.148 110.644 443.036 110.268 442.812 110.02C442.596 109.772 442.28 109.648 441.864 109.648C441.448 109.648 441.128 109.772 440.904 110.02C440.688 110.268 440.58 110.644 440.58 111.148V112.612C440.58 113.116 440.688 113.492 440.904 113.74C441.128 113.988 441.448 114.112 441.864 114.112ZM447.562 115.144C447.042 115.144 446.59 115.048 446.206 114.856C445.83 114.656 445.502 114.368 445.222 113.992L446.014 113.26C446.222 113.556 446.45 113.78 446.698 113.932C446.946 114.076 447.238 114.148 447.574 114.148C447.902 114.148 448.154 114.076 448.33 113.932C448.506 113.78 448.594 113.56 448.594 113.272C448.594 113.048 448.538 112.868 448.426 112.732C448.314 112.596 448.11 112.5 447.814 112.444L447.274 112.348C446.642 112.236 446.178 112.04 445.882 111.76C445.586 111.48 445.438 111.064 445.438 110.512C445.438 109.864 445.626 109.388 446.002 109.084C446.378 108.772 446.894 108.616 447.55 108.616C448.03 108.616 448.438 108.7 448.774 108.868C449.118 109.028 449.418 109.264 449.674 109.576L448.93 110.308C448.762 110.076 448.558 109.904 448.318 109.792C448.086 109.672 447.834 109.612 447.562 109.612C446.938 109.612 446.626 109.896 446.626 110.464C446.626 110.712 446.69 110.896 446.818 111.016C446.946 111.136 447.15 111.22 447.43 111.268L447.982 111.376C448.63 111.488 449.09 111.688 449.362 111.976C449.642 112.256 449.782 112.644 449.782 113.14C449.782 113.772 449.59 114.264 449.206 114.616C448.822 114.968 448.274 115.144 447.562 115.144ZM453.362 115.144C452.97 115.144 452.61 115.08 452.282 114.952C451.954 114.824 451.674 114.628 451.442 114.364C451.21 114.092 451.026 113.752 450.89 113.344C450.762 112.936 450.698 112.448 450.698 111.88C450.698 111.312 450.758 110.824 450.878 110.416C450.998 110 451.17 109.66 451.394 109.396C451.626 109.132 451.898 108.936 452.21 108.808C452.53 108.68 452.89 108.616 453.29 108.616C454.082 108.616 454.698 108.876 455.138 109.396C455.586 109.916 455.81 110.744 455.81 111.88V112.192H451.994V112.588C451.994 113.084 452.118 113.464 452.366 113.728C452.622 113.992 452.97 114.124 453.41 114.124C453.786 114.124 454.094 114.04 454.334 113.872C454.582 113.704 454.79 113.468 454.958 113.164L455.678 113.848C455.454 114.24 455.15 114.556 454.766 114.796C454.39 115.028 453.922 115.144 453.362 115.144ZM453.29 109.6C452.874 109.6 452.554 109.728 452.33 109.984C452.106 110.232 451.994 110.608 451.994 111.112V111.364H454.502V111.112C454.502 110.104 454.098 109.6 453.29 109.6ZM458.93 115.144C458.41 115.144 457.958 115.048 457.574 114.856C457.198 114.656 456.87 114.368 456.59 113.992L457.382 113.26C457.59 113.556 457.818 113.78 458.066 113.932C458.314 114.076 458.606 114.148 458.942 114.148C459.27 114.148 459.522 114.076 459.698 113.932C459.874 113.78 459.962 113.56 459.962 113.272C459.962 113.048 459.906 112.868 459.794 112.732C459.682 112.596 459.478 112.5 459.182 112.444L458.642 112.348C458.01 112.236 457.546 112.04 457.25 111.76C456.954 111.48 456.806 111.064 456.806 110.512C456.806 109.864 456.994 109.388 457.37 109.084C457.746 108.772 458.262 108.616 458.918 108.616C459.398 108.616 459.806 108.7 460.142 108.868C460.486 109.028 460.786 109.264 461.042 109.576L460.298 110.308C460.13 110.076 459.926 109.904 459.686 109.792C459.454 109.672 459.202 109.612 458.93 109.612C458.306 109.612 457.994 109.896 457.994 110.464C457.994 110.712 458.058 110.896 458.186 111.016C458.314 111.136 458.518 111.22 458.798 111.268L459.35 111.376C459.998 111.488 460.458 111.688 460.73 111.976C461.01 112.256 461.15 112.644 461.15 113.14C461.15 113.772 460.958 114.264 460.574 114.616C460.19 114.968 459.642 115.144 458.93 115.144ZM464.764 115V113.98H465.784V107.644H464.764V106.624H468.076V107.644H467.056V113.98H468.076V115H464.764ZM469.528 115V108.76H470.764V109.792H470.908C471.156 109.008 471.668 108.616 472.444 108.616C473.004 108.616 473.436 108.808 473.74 109.192C474.052 109.568 474.208 110.124 474.208 110.86V115H472.972V111.028C472.972 110.588 472.888 110.252 472.72 110.02C472.552 109.788 472.288 109.672 471.928 109.672C471.6 109.672 471.324 109.772 471.1 109.972C470.876 110.164 470.764 110.436 470.764 110.788V115H469.528ZM477.656 115.144C477.136 115.144 476.684 115.048 476.3 114.856C475.924 114.656 475.596 114.368 475.316 113.992L476.108 113.26C476.316 113.556 476.544 113.78 476.792 113.932C477.04 114.076 477.332 114.148 477.668 114.148C477.996 114.148 478.248 114.076 478.424 113.932C478.6 113.78 478.688 113.56 478.688 113.272C478.688 113.048 478.632 112.868 478.52 112.732C478.408 112.596 478.204 112.5 477.908 112.444L477.368 112.348C476.736 112.236 476.272 112.04 475.976 111.76C475.68 111.48 475.532 111.064 475.532 110.512C475.532 109.864 475.72 109.388 476.096 109.084C476.472 108.772 476.988 108.616 477.644 108.616C478.124 108.616 478.532 108.7 478.868 108.868C479.212 109.028 479.512 109.264 479.768 109.576L479.024 110.308C478.856 110.076 478.652 109.904 478.412 109.792C478.18 109.672 477.928 109.612 477.656 109.612C477.032 109.612 476.72 109.896 476.72 110.464C476.72 110.712 476.784 110.896 476.912 111.016C477.04 111.136 477.244 111.22 477.524 111.268L478.076 111.376C478.724 111.488 479.184 111.688 479.456 111.976C479.736 112.256 479.876 112.644 479.876 113.14C479.876 113.772 479.684 114.264 479.3 114.616C478.916 114.968 478.368 115.144 477.656 115.144ZM482.689 115C482.257 115 481.941 114.904 481.741 114.712C481.549 114.52 481.453 114.208 481.453 113.776V109.78H480.589V108.76H481.069C481.269 108.76 481.401 108.716 481.465 108.628C481.537 108.532 481.573 108.384 481.573 108.184V107.056H482.689V108.76H483.853V109.78H482.689V113.98H483.769V115H482.689ZM489.098 115C488.794 115 488.558 114.916 488.39 114.748C488.222 114.58 488.138 114.316 488.138 113.956H487.994C487.906 114.332 487.722 114.624 487.442 114.832C487.17 115.04 486.834 115.144 486.434 115.144C485.842 115.144 485.398 114.988 485.102 114.676C484.814 114.356 484.67 113.908 484.67 113.332C484.67 112.708 484.87 112.232 485.27 111.904C485.67 111.576 486.258 111.412 487.034 111.412H488.066V110.812C488.066 110.412 487.978 110.12 487.802 109.936C487.626 109.744 487.346 109.648 486.962 109.648C486.666 109.648 486.41 109.712 486.194 109.84C485.986 109.968 485.794 110.184 485.618 110.488L484.886 109.816C485.094 109.464 485.374 109.176 485.726 108.952C486.086 108.728 486.526 108.616 487.046 108.616C487.798 108.616 488.362 108.8 488.738 109.168C489.114 109.528 489.302 110.06 489.302 110.764V113.98H489.89V115H489.098ZM486.842 114.184C487.018 114.184 487.178 114.156 487.322 114.1C487.474 114.044 487.602 113.968 487.706 113.872C487.818 113.776 487.906 113.664 487.97 113.536C488.034 113.4 488.066 113.256 488.066 113.104V112.24H487.094C486.318 112.24 485.93 112.52 485.93 113.08V113.368C485.93 113.648 486.01 113.856 486.17 113.992C486.338 114.12 486.562 114.184 486.842 114.184ZM491.055 115V108.76H492.291V109.792H492.435C492.683 109.008 493.195 108.616 493.971 108.616C494.531 108.616 494.963 108.808 495.267 109.192C495.579 109.568 495.735 110.124 495.735 110.86V115H494.499V111.028C494.499 110.588 494.415 110.252 494.247 110.02C494.079 109.788 493.815 109.672 493.455 109.672C493.127 109.672 492.851 109.772 492.627 109.972C492.403 110.164 492.291 110.436 492.291 110.788V115H491.055ZM504.055 113.752H503.911C503.847 114.168 503.639 114.504 503.287 114.76C502.943 115.016 502.523 115.144 502.027 115.144C501.275 115.144 500.703 114.94 500.311 114.532C499.919 114.116 499.723 113.544 499.723 112.816C499.723 112.264 499.851 111.804 500.107 111.436C500.363 111.068 500.743 110.744 501.247 110.464C500.631 109.728 500.323 109.016 500.323 108.328C500.323 107.752 500.503 107.3 500.863 106.972C501.223 106.644 501.731 106.48 502.387 106.48C503.043 106.48 503.551 106.644 503.911 106.972C504.271 107.3 504.451 107.752 504.451 108.328C504.451 109.224 503.931 109.984 502.891 110.608L504.319 112.432C504.423 112.144 504.499 111.84 504.547 111.52C504.603 111.192 504.639 110.86 504.655 110.524H506.299V111.544H505.579C505.475 112.168 505.303 112.728 505.062 113.224L506.551 115H505.015L504.055 113.752ZM502.387 107.452C502.123 107.452 501.911 107.524 501.751 107.668C501.591 107.812 501.511 108.024 501.511 108.304V108.496C501.511 108.696 501.579 108.928 501.715 109.192C501.851 109.448 502.035 109.696 502.267 109.936C502.587 109.752 502.831 109.536 502.999 109.288C503.175 109.032 503.263 108.764 503.263 108.484V108.304C503.263 108.024 503.183 107.812 503.023 107.668C502.863 107.524 502.651 107.452 502.387 107.452ZM502.327 114.112C502.623 114.112 502.879 114.052 503.095 113.932C503.319 113.804 503.511 113.628 503.671 113.404L501.871 111.148C501.567 111.308 501.343 111.504 501.199 111.736C501.055 111.96 500.983 112.244 500.983 112.588V112.864C500.983 113.264 501.099 113.572 501.331 113.788C501.571 114.004 501.903 114.112 502.327 114.112ZM510.17 115V106.624H513.482C514.202 106.624 514.742 106.84 515.102 107.272C515.47 107.696 515.654 108.312 515.654 109.12C515.654 109.928 515.47 110.548 515.102 110.98C514.742 111.404 514.202 111.616 513.482 111.616H511.442V115H510.17ZM511.442 110.488H513.374C513.678 110.488 513.906 110.412 514.058 110.26C514.218 110.1 514.298 109.848 514.298 109.504V108.736C514.298 108.392 514.218 108.144 514.058 107.992C513.906 107.832 513.678 107.752 513.374 107.752H511.442V110.488ZM516.789 115V108.76H518.025V109.996H518.169C518.257 109.596 518.421 109.292 518.661 109.084C518.909 108.868 519.221 108.76 519.597 108.76H519.909V110.02H519.381C518.941 110.02 518.605 110.104 518.373 110.272C518.141 110.44 518.025 110.708 518.025 111.076V115H516.789ZM523.182 115.144C522.79 115.144 522.43 115.08 522.102 114.952C521.774 114.824 521.494 114.628 521.262 114.364C521.03 114.092 520.846 113.752 520.71 113.344C520.582 112.936 520.518 112.448 520.518 111.88C520.518 111.312 520.578 110.824 520.698 110.416C520.818 110 520.99 109.66 521.214 109.396C521.446 109.132 521.718 108.936 522.03 108.808C522.35 108.68 522.71 108.616 523.11 108.616C523.902 108.616 524.518 108.876 524.958 109.396C525.406 109.916 525.63 110.744 525.63 111.88V112.192H521.814V112.588C521.814 113.084 521.938 113.464 522.186 113.728C522.442 113.992 522.79 114.124 523.23 114.124C523.606 114.124 523.914 114.04 524.154 113.872C524.402 113.704 524.61 113.468 524.778 113.164L525.498 113.848C525.274 114.24 524.97 114.556 524.586 114.796C524.21 115.028 523.742 115.144 523.182 115.144ZM523.11 109.6C522.694 109.6 522.374 109.728 522.15 109.984C521.926 110.232 521.814 110.608 521.814 111.112V111.364H524.322V111.112C524.322 110.104 523.918 109.6 523.11 109.6ZM528.75 115.144C528.23 115.144 527.778 115.048 527.394 114.856C527.018 114.656 526.69 114.368 526.41 113.992L527.202 113.26C527.41 113.556 527.638 113.78 527.886 113.932C528.134 114.076 528.426 114.148 528.762 114.148C529.09 114.148 529.342 114.076 529.518 113.932C529.694 113.78 529.782 113.56 529.782 113.272C529.782 113.048 529.726 112.868 529.614 112.732C529.502 112.596 529.298 112.5 529.002 112.444L528.462 112.348C527.83 112.236 527.366 112.04 527.07 111.76C526.774 111.48 526.626 111.064 526.626 110.512C526.626 109.864 526.814 109.388 527.19 109.084C527.566 108.772 528.082 108.616 528.738 108.616C529.218 108.616 529.626 108.7 529.962 108.868C530.306 109.028 530.606 109.264 530.862 109.576L530.118 110.308C529.95 110.076 529.746 109.904 529.506 109.792C529.274 109.672 529.022 109.612 528.75 109.612C528.126 109.612 527.814 109.896 527.814 110.464C527.814 110.712 527.878 110.896 528.006 111.016C528.134 111.136 528.338 111.22 528.618 111.268L529.17 111.376C529.818 111.488 530.278 111.688 530.55 111.976C530.83 112.256 530.97 112.644 530.97 113.14C530.97 113.772 530.778 114.264 530.394 114.616C530.01 114.968 529.462 115.144 528.75 115.144ZM532.905 107.572C532.409 107.572 532.161 107.36 532.161 106.936V106.72C532.161 106.296 532.409 106.084 532.905 106.084C533.401 106.084 533.649 106.296 533.649 106.72V106.936C533.649 107.36 533.401 107.572 532.905 107.572ZM532.293 108.76H533.529V115H532.293V108.76ZM537.035 115.144C536.515 115.144 536.063 115.048 535.679 114.856C535.303 114.656 534.975 114.368 534.695 113.992L535.487 113.26C535.695 113.556 535.923 113.78 536.171 113.932C536.419 114.076 536.711 114.148 537.047 114.148C537.375 114.148 537.627 114.076 537.803 113.932C537.979 113.78 538.067 113.56 538.067 113.272C538.067 113.048 538.011 112.868 537.899 112.732C537.787 112.596 537.583 112.5 537.287 112.444L536.747 112.348C536.115 112.236 535.651 112.04 535.355 111.76C535.059 111.48 534.911 111.064 534.911 110.512C534.911 109.864 535.099 109.388 535.475 109.084C535.851 108.772 536.367 108.616 537.023 108.616C537.503 108.616 537.911 108.7 538.247 108.868C538.591 109.028 538.891 109.264 539.147 109.576L538.403 110.308C538.235 110.076 538.031 109.904 537.791 109.792C537.559 109.672 537.307 109.612 537.035 109.612C536.411 109.612 536.099 109.896 536.099 110.464C536.099 110.712 536.163 110.896 536.291 111.016C536.419 111.136 536.623 111.22 536.903 111.268L537.455 111.376C538.103 111.488 538.563 111.688 538.835 111.976C539.115 112.256 539.255 112.644 539.255 113.14C539.255 113.772 539.063 114.264 538.679 114.616C538.295 114.968 537.747 115.144 537.035 115.144ZM541.191 107.572C540.695 107.572 540.447 107.36 540.447 106.936V106.72C540.447 106.296 540.695 106.084 541.191 106.084C541.687 106.084 541.935 106.296 541.935 106.72V106.936C541.935 107.36 541.687 107.572 541.191 107.572ZM540.579 108.76H541.815V115H540.579V108.76Z" fill="#FAFAF9"/>
<path d="M569.924 115V106.624H571.196V113.884H574.244V115H569.924ZM579.496 115C579.192 115 578.956 114.916 578.788 114.748C578.62 114.58 578.536 114.316 578.536 113.956H578.392C578.304 114.332 578.12 114.624 577.84 114.832C577.568 115.04 577.232 115.144 576.832 115.144C576.24 115.144 575.796 114.988 575.5 114.676C575.212 114.356 575.068 113.908 575.068 113.332C575.068 112.708 575.268 112.232 575.668 111.904C576.068 111.576 576.656 111.412 577.432 111.412H578.464V110.812C578.464 110.412 578.376 110.12 578.2 109.936C578.024 109.744 577.744 109.648 577.36 109.648C577.064 109.648 576.808 109.712 576.592 109.84C576.384 109.968 576.192 110.184 576.016 110.488L575.284 109.816C575.492 109.464 575.772 109.176 576.124 108.952C576.484 108.728 576.924 108.616 577.444 108.616C578.196 108.616 578.76 108.8 579.136 109.168C579.512 109.528 579.7 110.06 579.7 110.764V113.98H580.288V115H579.496ZM577.24 114.184C577.416 114.184 577.576 114.156 577.72 114.1C577.872 114.044 578 113.968 578.104 113.872C578.216 113.776 578.304 113.664 578.368 113.536C578.432 113.4 578.464 113.256 578.464 113.104V112.24H577.492C576.716 112.24 576.328 112.52 576.328 113.08V113.368C576.328 113.648 576.408 113.856 576.568 113.992C576.736 114.12 576.96 114.184 577.24 114.184ZM584.791 108.76H586.015L583.603 116.416C583.539 116.608 583.467 116.768 583.387 116.896C583.315 117.024 583.223 117.124 583.111 117.196C583.007 117.276 582.879 117.328 582.727 117.352C582.575 117.384 582.399 117.4 582.199 117.4H581.335V116.38H582.463L582.751 115.336L580.675 108.76H581.935L582.871 112.036L583.303 113.932H583.435L583.867 112.036L584.791 108.76ZM590.852 115C590.548 115 590.312 114.916 590.144 114.748C589.976 114.58 589.892 114.316 589.892 113.956H589.748C589.66 114.332 589.476 114.624 589.196 114.832C588.924 115.04 588.588 115.144 588.188 115.144C587.596 115.144 587.152 114.988 586.856 114.676C586.568 114.356 586.424 113.908 586.424 113.332C586.424 112.708 586.624 112.232 587.024 111.904C587.424 111.576 588.012 111.412 588.788 111.412H589.82V110.812C589.82 110.412 589.732 110.12 589.556 109.936C589.38 109.744 589.1 109.648 588.716 109.648C588.42 109.648 588.164 109.712 587.948 109.84C587.74 109.968 587.548 110.184 587.372 110.488L586.64 109.816C586.848 109.464 587.128 109.176 587.48 108.952C587.84 108.728 588.28 108.616 588.8 108.616C589.552 108.616 590.116 108.8 590.492 109.168C590.868 109.528 591.056 110.06 591.056 110.764V113.98H591.644V115H590.852ZM588.596 114.184C588.772 114.184 588.932 114.156 589.076 114.1C589.228 114.044 589.356 113.968 589.46 113.872C589.572 113.776 589.66 113.664 589.724 113.536C589.788 113.4 589.82 113.256 589.82 113.104V112.24H588.848C588.072 112.24 587.684 112.52 587.684 113.08V113.368C587.684 113.648 587.764 113.856 587.924 113.992C588.092 114.12 588.316 114.184 588.596 114.184ZM592.809 115V108.76H594.045V109.792H594.189C594.437 109.008 594.949 108.616 595.725 108.616C596.285 108.616 596.717 108.808 597.021 109.192C597.333 109.568 597.489 110.124 597.489 110.86V115H596.253V111.028C596.253 110.588 596.169 110.252 596.001 110.02C595.833 109.788 595.569 109.672 595.209 109.672C594.881 109.672 594.605 109.772 594.381 109.972C594.157 110.164 594.045 110.436 594.045 110.788V115H592.809ZM603.121 115C602.817 115 602.581 114.916 602.413 114.748C602.245 114.58 602.161 114.316 602.161 113.956H602.017C601.929 114.332 601.745 114.624 601.465 114.832C601.193 115.04 600.857 115.144 600.457 115.144C599.865 115.144 599.421 114.988 599.125 114.676C598.837 114.356 598.693 113.908 598.693 113.332C598.693 112.708 598.893 112.232 599.293 111.904C599.693 111.576 600.281 111.412 601.057 111.412H602.089V110.812C602.089 110.412 602.001 110.12 601.825 109.936C601.649 109.744 601.369 109.648 600.985 109.648C600.689 109.648 600.433 109.712 600.217 109.84C600.009 109.968 599.817 110.184 599.641 110.488L598.909 109.816C599.117 109.464 599.397 109.176 599.749 108.952C600.109 108.728 600.549 108.616 601.069 108.616C601.821 108.616 602.385 108.8 602.761 109.168C603.137 109.528 603.325 110.06 603.325 110.764V113.98H603.913V115H603.121ZM600.865 114.184C601.041 114.184 601.201 114.156 601.345 114.1C601.497 114.044 601.625 113.968 601.729 113.872C601.841 113.776 601.929 113.664 601.993 113.536C602.057 113.4 602.089 113.256 602.089 113.104V112.24H601.117C600.341 112.24 599.953 112.52 599.953 113.08V113.368C599.953 113.648 600.033 113.856 600.193 113.992C600.361 114.12 600.585 114.184 600.865 114.184ZM605.078 115V108.76H606.314V109.792H606.458C606.706 109.008 607.218 108.616 607.994 108.616C608.554 108.616 608.986 108.808 609.29 109.192C609.602 109.568 609.758 110.124 609.758 110.86V115H608.522V111.028C608.522 110.588 608.438 110.252 608.27 110.02C608.102 109.788 607.838 109.672 607.478 109.672C607.15 109.672 606.874 109.772 606.65 109.972C606.426 110.164 606.314 110.436 606.314 110.788V115H605.078ZM615.282 115H614.01V106.624H617.322C618.042 106.624 618.582 106.84 618.942 107.272C619.31 107.696 619.494 108.308 619.494 109.108C619.494 109.756 619.374 110.28 619.134 110.68C618.894 111.08 618.534 111.348 618.054 111.484L619.65 115H618.234L616.782 111.58H615.282V115ZM617.214 110.512C617.518 110.512 617.746 110.436 617.898 110.284C618.058 110.124 618.138 109.868 618.138 109.516V108.736C618.138 108.384 618.058 108.132 617.898 107.98C617.746 107.82 617.518 107.74 617.214 107.74H615.282V110.512H617.214ZM623.213 115.144C622.821 115.144 622.461 115.08 622.133 114.952C621.805 114.824 621.525 114.628 621.293 114.364C621.061 114.092 620.877 113.752 620.741 113.344C620.613 112.936 620.549 112.448 620.549 111.88C620.549 111.312 620.609 110.824 620.729 110.416C620.849 110 621.021 109.66 621.245 109.396C621.477 109.132 621.749 108.936 622.061 108.808C622.381 108.68 622.741 108.616 623.141 108.616C623.933 108.616 624.549 108.876 624.989 109.396C625.437 109.916 625.661 110.744 625.661 111.88V112.192H621.845V112.588C621.845 113.084 621.969 113.464 622.217 113.728C622.473 113.992 622.821 114.124 623.261 114.124C623.637 114.124 623.945 114.04 624.185 113.872C624.433 113.704 624.641 113.468 624.809 113.164L625.529 113.848C625.305 114.24 625.001 114.556 624.617 114.796C624.241 115.028 623.773 115.144 623.213 115.144ZM623.141 109.6C622.725 109.6 622.405 109.728 622.181 109.984C621.957 110.232 621.845 110.608 621.845 111.112V111.364H624.353V111.112C624.353 110.104 623.949 109.6 623.141 109.6ZM628.781 115.144C628.261 115.144 627.809 115.048 627.425 114.856C627.049 114.656 626.721 114.368 626.441 113.992L627.233 113.26C627.441 113.556 627.669 113.78 627.917 113.932C628.165 114.076 628.457 114.148 628.793 114.148C629.121 114.148 629.373 114.076 629.549 113.932C629.725 113.78 629.813 113.56 629.813 113.272C629.813 113.048 629.757 112.868 629.645 112.732C629.533 112.596 629.329 112.5 629.033 112.444L628.493 112.348C627.861 112.236 627.397 112.04 627.101 111.76C626.805 111.48 626.657 111.064 626.657 110.512C626.657 109.864 626.845 109.388 627.221 109.084C627.597 108.772 628.113 108.616 628.769 108.616C629.249 108.616 629.657 108.7 629.993 108.868C630.337 109.028 630.637 109.264 630.893 109.576L630.149 110.308C629.981 110.076 629.777 109.904 629.537 109.792C629.305 109.672 629.053 109.612 628.781 109.612C628.157 109.612 627.845 109.896 627.845 110.464C627.845 110.712 627.909 110.896 628.037 111.016C628.165 111.136 628.369 111.22 628.649 111.268L629.201 111.376C629.849 111.488 630.309 111.688 630.581 111.976C630.861 112.256 631.001 112.644 631.001 113.14C631.001 113.772 630.809 114.264 630.425 114.616C630.041 114.968 629.493 115.144 628.781 115.144ZM632.313 108.76H633.549V109.78H633.693C633.797 109.412 633.981 109.128 634.245 108.928C634.517 108.72 634.837 108.616 635.205 108.616C635.941 108.616 636.489 108.9 636.849 109.468C637.217 110.028 637.401 110.832 637.401 111.88C637.401 112.928 637.217 113.736 636.849 114.304C636.489 114.864 635.941 115.144 635.205 115.144C634.837 115.144 634.517 115.044 634.245 114.844C633.981 114.636 633.797 114.348 633.693 113.98H633.549V117.4H632.313V108.76ZM634.761 114.088C635.185 114.088 635.513 113.956 635.745 113.692C635.977 113.428 636.093 113.056 636.093 112.576V111.184C636.093 110.704 635.977 110.332 635.745 110.068C635.513 109.804 635.185 109.672 634.761 109.672C634.409 109.672 634.117 109.764 633.885 109.948C633.661 110.132 633.549 110.384 633.549 110.704V113.056C633.549 113.376 633.661 113.628 633.885 113.812C634.117 113.996 634.409 114.088 634.761 114.088ZM640.931 115.144C640.531 115.144 640.171 115.08 639.851 114.952C639.539 114.824 639.267 114.628 639.035 114.364C638.811 114.1 638.639 113.764 638.519 113.356C638.399 112.94 638.339 112.448 638.339 111.88C638.339 111.312 638.399 110.824 638.519 110.416C638.639 110 638.811 109.66 639.035 109.396C639.267 109.132 639.539 108.936 639.851 108.808C640.171 108.68 640.531 108.616 640.931 108.616C641.323 108.616 641.679 108.68 641.999 108.808C642.319 108.936 642.591 109.132 642.815 109.396C643.047 109.66 643.223 110 643.343 110.416C643.463 110.824 643.523 111.312 643.523 111.88C643.523 112.448 643.463 112.94 643.343 113.356C643.223 113.764 643.047 114.1 642.815 114.364C642.591 114.628 642.319 114.824 641.999 114.952C641.679 115.08 641.323 115.144 640.931 115.144ZM640.931 114.112C641.347 114.112 641.663 113.988 641.879 113.74C642.103 113.492 642.215 113.116 642.215 112.612V111.148C642.215 110.644 642.103 110.268 641.879 110.02C641.663 109.772 641.347 109.648 640.931 109.648C640.515 109.648 640.195 109.772 639.971 110.02C639.755 110.268 639.647 110.644 639.647 111.148V112.612C639.647 113.116 639.755 113.492 639.971 113.74C640.195 113.988 640.515 114.112 640.931 114.112ZM644.805 115V108.76H646.041V109.792H646.185C646.433 109.008 646.945 108.616 647.721 108.616C648.281 108.616 648.713 108.808 649.017 109.192C649.329 109.568 649.485 110.124 649.485 110.86V115H648.249V111.028C648.249 110.588 648.165 110.252 647.997 110.02C647.829 109.788 647.565 109.672 647.205 109.672C646.877 109.672 646.601 109.772 646.377 109.972C646.153 110.164 646.041 110.436 646.041 110.788V115H644.805ZM652.934 115.144C652.414 115.144 651.962 115.048 651.578 114.856C651.202 114.656 650.874 114.368 650.594 113.992L651.386 113.26C651.594 113.556 651.822 113.78 652.07 113.932C652.318 114.076 652.61 114.148 652.946 114.148C653.274 114.148 653.526 114.076 653.702 113.932C653.878 113.78 653.966 113.56 653.966 113.272C653.966 113.048 653.91 112.868 653.798 112.732C653.686 112.596 653.482 112.5 653.186 112.444L652.646 112.348C652.014 112.236 651.55 112.04 651.254 111.76C650.958 111.48 650.81 111.064 650.81 110.512C650.81 109.864 650.998 109.388 651.374 109.084C651.75 108.772 652.266 108.616 652.922 108.616C653.402 108.616 653.81 108.7 654.146 108.868C654.49 109.028 654.79 109.264 655.046 109.576L654.302 110.308C654.134 110.076 653.93 109.904 653.69 109.792C653.458 109.672 653.206 109.612 652.934 109.612C652.31 109.612 651.998 109.896 651.998 110.464C651.998 110.712 652.062 110.896 652.19 111.016C652.318 111.136 652.522 111.22 652.802 111.268L653.354 111.376C654.002 111.488 654.462 111.688 654.734 111.976C655.014 112.256 655.154 112.644 655.154 113.14C655.154 113.772 654.962 114.264 654.578 114.616C654.194 114.968 653.646 115.144 652.934 115.144ZM657.089 107.572C656.593 107.572 656.345 107.36 656.345 106.936V106.72C656.345 106.296 656.593 106.084 657.089 106.084C657.585 106.084 657.833 106.296 657.833 106.72V106.936C657.833 107.36 657.585 107.572 657.089 107.572ZM656.477 108.76H657.713V115H656.477V108.76ZM659.695 109.78H658.831V108.76H659.695V107.572C659.695 107.068 659.807 106.7 660.031 106.468C660.255 106.236 660.611 106.12 661.099 106.12H662.095V107.14H660.931V108.76H662.095V109.78H660.931V115H659.695V109.78ZM668.063 115.144C667.439 115.144 666.895 115.028 666.431 114.796C665.975 114.556 665.583 114.212 665.255 113.764L666.131 112.96C666.379 113.304 666.663 113.568 666.983 113.752C667.303 113.936 667.667 114.028 668.075 114.028C669.067 114.028 669.563 113.572 669.563 112.66C669.563 112.292 669.475 112.012 669.299 111.82C669.123 111.62 668.819 111.468 668.387 111.364L667.703 111.22C666.951 111.052 666.395 110.784 666.035 110.416C665.683 110.04 665.507 109.516 665.507 108.844C665.507 108.068 665.739 107.48 666.203 107.08C666.675 106.68 667.331 106.48 668.171 106.48C668.771 106.48 669.275 106.584 669.683 106.792C670.099 106.992 670.459 107.308 670.763 107.74L669.887 108.508C669.671 108.204 669.427 107.976 669.155 107.824C668.891 107.672 668.555 107.596 668.147 107.596C667.691 107.596 667.347 107.692 667.115 107.884C666.891 108.068 666.779 108.376 666.779 108.808C666.779 109.16 666.867 109.428 667.043 109.612C667.227 109.788 667.523 109.924 667.931 110.02L668.615 110.176C669.015 110.264 669.355 110.376 669.635 110.512C669.915 110.64 670.143 110.8 670.319 110.992C670.503 111.184 670.635 111.412 670.715 111.676C670.795 111.932 670.835 112.232 670.835 112.576C670.835 113.416 670.591 114.056 670.103 114.496C669.623 114.928 668.943 115.144 668.063 115.144ZM674.436 115.144C674.044 115.144 673.684 115.08 673.356 114.952C673.028 114.824 672.748 114.628 672.516 114.364C672.284 114.092 672.1 113.752 671.964 113.344C671.836 112.936 671.772 112.448 671.772 111.88C671.772 111.312 671.832 110.824 671.952 110.416C672.072 110 672.244 109.66 672.468 109.396C672.7 109.132 672.972 108.936 673.284 108.808C673.604 108.68 673.964 108.616 674.364 108.616C675.156 108.616 675.772 108.876 676.212 109.396C676.66 109.916 676.884 110.744 676.884 111.88V112.192H673.068V112.588C673.068 113.084 673.192 113.464 673.44 113.728C673.696 113.992 674.044 114.124 674.484 114.124C674.86 114.124 675.168 114.04 675.408 113.872C675.656 113.704 675.864 113.468 676.032 113.164L676.752 113.848C676.528 114.24 676.224 114.556 675.84 114.796C675.464 115.028 674.996 115.144 674.436 115.144ZM674.364 109.6C673.948 109.6 673.628 109.728 673.404 109.984C673.18 110.232 673.068 110.608 673.068 111.112V111.364H675.576V111.112C675.576 110.104 675.172 109.6 674.364 109.6ZM678.18 108.76H679.416V109.78H679.56C679.664 109.412 679.848 109.128 680.112 108.928C680.384 108.72 680.704 108.616 681.072 108.616C681.808 108.616 682.356 108.9 682.716 109.468C683.084 110.028 683.268 110.832 683.268 111.88C683.268 112.928 683.084 113.736 682.716 114.304C682.356 114.864 681.808 115.144 681.072 115.144C680.704 115.144 680.384 115.044 680.112 114.844C679.848 114.636 679.664 114.348 679.56 113.98H679.416V117.4H678.18V108.76ZM680.628 114.088C681.052 114.088 681.38 113.956 681.612 113.692C681.844 113.428 681.96 113.056 681.96 112.576V111.184C681.96 110.704 681.844 110.332 681.612 110.068C681.38 109.804 681.052 109.672 680.628 109.672C680.276 109.672 679.984 109.764 679.752 109.948C679.528 110.132 679.416 110.384 679.416 110.704V113.056C679.416 113.376 679.528 113.628 679.752 113.812C679.984 113.996 680.276 114.088 680.628 114.088ZM688.61 115C688.306 115 688.07 114.916 687.902 114.748C687.734 114.58 687.65 114.316 687.65 113.956H687.506C687.418 114.332 687.234 114.624 686.954 114.832C686.682 115.04 686.346 115.144 685.946 115.144C685.354 115.144 684.91 114.988 684.614 114.676C684.326 114.356 684.182 113.908 684.182 113.332C684.182 112.708 684.382 112.232 684.782 111.904C685.182 111.576 685.77 111.412 686.546 111.412H687.578V110.812C687.578 110.412 687.49 110.12 687.314 109.936C687.138 109.744 686.858 109.648 686.474 109.648C686.178 109.648 685.922 109.712 685.706 109.84C685.498 109.968 685.306 110.184 685.13 110.488L684.398 109.816C684.606 109.464 684.886 109.176 685.238 108.952C685.598 108.728 686.038 108.616 686.558 108.616C687.31 108.616 687.874 108.8 688.25 109.168C688.626 109.528 688.814 110.06 688.814 110.764V113.98H689.402V115H688.61ZM686.354 114.184C686.53 114.184 686.69 114.156 686.834 114.1C686.986 114.044 687.114 113.968 687.218 113.872C687.33 113.776 687.418 113.664 687.482 113.536C687.546 113.4 687.578 113.256 687.578 113.104V112.24H686.606C685.83 112.24 685.442 112.52 685.442 113.08V113.368C685.442 113.648 685.522 113.856 685.682 113.992C685.85 114.12 686.074 114.184 686.354 114.184ZM690.567 115V108.76H691.803V109.792H691.947C692.195 109.008 692.707 108.616 693.483 108.616C694.043 108.616 694.475 108.808 694.779 109.192C695.091 109.568 695.247 110.124 695.247 110.86V115H694.011V111.028C694.011 110.588 693.927 110.252 693.759 110.02C693.591 109.788 693.327 109.672 692.967 109.672C692.639 109.672 692.363 109.772 692.139 109.972C691.915 110.164 691.803 110.436 691.803 110.788V115H690.567ZM696.883 108.76H698.119V116.044C698.119 116.508 698.011 116.848 697.795 117.064C697.587 117.288 697.239 117.4 696.751 117.4H696.007V116.38H696.883V108.76ZM697.495 107.572C696.999 107.572 696.751 107.36 696.751 106.936V106.72C696.751 106.296 696.999 106.084 697.495 106.084C697.991 106.084 698.239 106.296 698.239 106.72V106.936C698.239 107.36 697.991 107.572 697.495 107.572ZM703.821 115C703.517 115 703.281 114.916 703.113 114.748C702.945 114.58 702.861 114.316 702.861 113.956H702.717C702.629 114.332 702.445 114.624 702.165 114.832C701.893 115.04 701.557 115.144 701.157 115.144C700.565 115.144 700.121 114.988 699.825 114.676C699.537 114.356 699.393 113.908 699.393 113.332C699.393 112.708 699.593 112.232 699.993 111.904C700.393 111.576 700.981 111.412 701.757 111.412H702.789V110.812C702.789 110.412 702.701 110.12 702.525 109.936C702.349 109.744 702.069 109.648 701.685 109.648C701.389 109.648 701.133 109.712 700.917 109.84C700.709 109.968 700.517 110.184 700.341 110.488L699.609 109.816C699.817 109.464 700.097 109.176 700.449 108.952C700.809 108.728 701.249 108.616 701.769 108.616C702.521 108.616 703.085 108.8 703.461 109.168C703.837 109.528 704.025 110.06 704.025 110.764V113.98H704.613V115H703.821ZM701.565 114.184C701.741 114.184 701.901 114.156 702.045 114.1C702.197 114.044 702.325 113.968 702.429 113.872C702.541 113.776 702.629 113.664 702.693 113.536C702.757 113.4 702.789 113.256 702.789 113.104V112.24H701.817C701.041 112.24 700.653 112.52 700.653 113.08V113.368C700.653 113.648 700.733 113.856 700.893 113.992C701.061 114.12 701.285 114.184 701.565 114.184ZM705.778 115V108.76H707.014V109.792H707.158C707.406 109.008 707.918 108.616 708.694 108.616C709.254 108.616 709.686 108.808 709.99 109.192C710.302 109.568 710.458 110.124 710.458 110.86V115H709.222V111.028C709.222 110.588 709.138 110.252 708.97 110.02C708.802 109.788 708.538 109.672 708.178 109.672C707.85 109.672 707.574 109.772 707.35 109.972C707.126 110.164 707.014 110.436 707.014 110.788V115H705.778ZM717.05 115.612C717.05 115.94 716.998 116.224 716.894 116.464C716.79 116.704 716.622 116.904 716.39 117.064C716.158 117.224 715.858 117.344 715.49 117.424C715.13 117.504 714.686 117.544 714.158 117.544C713.686 117.544 713.286 117.508 712.958 117.436C712.63 117.372 712.362 117.276 712.154 117.148C711.954 117.02 711.81 116.86 711.722 116.668C711.634 116.484 711.59 116.272 711.59 116.032C711.59 115.712 711.674 115.456 711.842 115.264C712.018 115.08 712.258 114.964 712.562 114.916V114.712C712.338 114.632 712.17 114.512 712.058 114.352C711.954 114.192 711.902 114 711.902 113.776C711.902 113.496 711.99 113.272 712.166 113.104C712.35 112.928 712.594 112.816 712.898 112.768V112.624C712.226 112.28 711.89 111.656 711.89 110.752C711.89 110.064 712.078 109.536 712.454 109.168C712.838 108.8 713.406 108.616 714.158 108.616C714.526 108.616 714.862 108.676 715.166 108.796V108.592C715.166 108.072 715.414 107.812 715.91 107.812H716.774V108.808H715.622V109.084C715.878 109.244 716.074 109.468 716.21 109.756C716.354 110.036 716.426 110.368 716.426 110.752C716.426 111.44 716.234 111.968 715.85 112.336C715.474 112.696 714.91 112.876 714.158 112.876C714.014 112.876 713.874 112.868 713.738 112.852C713.61 112.836 713.486 112.816 713.366 112.792C713.206 112.84 713.086 112.924 713.006 113.044C712.926 113.156 712.886 113.28 712.886 113.416C712.886 113.576 712.938 113.696 713.042 113.776C713.154 113.856 713.334 113.896 713.582 113.896H715.082C715.794 113.896 716.298 114.044 716.594 114.34C716.898 114.636 717.05 115.06 717.05 115.612ZM715.886 115.732C715.886 115.5 715.81 115.32 715.658 115.192C715.506 115.064 715.25 115 714.89 115H712.97C712.73 115.168 712.61 115.416 712.61 115.744C712.61 116.024 712.698 116.24 712.874 116.392C713.058 116.552 713.366 116.632 713.798 116.632H714.542C715.014 116.632 715.354 116.556 715.562 116.404C715.778 116.26 715.886 116.036 715.886 115.732ZM714.158 111.976C714.87 111.976 715.226 111.624 715.226 110.92V110.56C715.226 109.856 714.87 109.504 714.158 109.504C713.446 109.504 713.09 109.856 713.09 110.56V110.92C713.09 111.624 713.446 111.976 714.158 111.976ZM721.661 115L719.885 106.624H721.181L722.165 111.7L722.429 113.644H722.585L722.849 111.724L723.905 106.624H725.453L726.521 111.724L726.785 113.644H726.941L727.205 111.7L728.189 106.624H729.437L727.601 115H726.077L724.997 109.84L724.733 107.908H724.589L724.325 109.84L723.197 115H721.661ZM734.254 115C733.95 115 733.714 114.916 733.546 114.748C733.378 114.58 733.294 114.316 733.294 113.956H733.15C733.062 114.332 732.878 114.624 732.598 114.832C732.326 115.04 731.99 115.144 731.59 115.144C730.998 115.144 730.554 114.988 730.258 114.676C729.97 114.356 729.826 113.908 729.826 113.332C729.826 112.708 730.026 112.232 730.426 111.904C730.826 111.576 731.414 111.412 732.19 111.412H733.222V110.812C733.222 110.412 733.134 110.12 732.958 109.936C732.782 109.744 732.502 109.648 732.118 109.648C731.822 109.648 731.566 109.712 731.35 109.84C731.142 109.968 730.95 110.184 730.774 110.488L730.042 109.816C730.25 109.464 730.53 109.176 730.882 108.952C731.242 108.728 731.682 108.616 732.202 108.616C732.954 108.616 733.518 108.8 733.894 109.168C734.27 109.528 734.458 110.06 734.458 110.764V113.98H735.046V115H734.254ZM731.998 114.184C732.174 114.184 732.334 114.156 732.478 114.1C732.63 114.044 732.758 113.968 732.862 113.872C732.974 113.776 733.062 113.664 733.126 113.536C733.19 113.4 733.222 113.256 733.222 113.104V112.24H732.25C731.474 112.24 731.086 112.52 731.086 113.08V113.368C731.086 113.648 731.166 113.856 731.326 113.992C731.494 114.12 731.718 114.184 731.998 114.184ZM736.211 106.12H737.447V110.428L737.363 111.688H737.495L738.287 110.524L739.655 108.76H741.083L739.091 111.232L741.215 115H739.799L738.215 112.012L737.447 112.936V115H736.211V106.12ZM743.618 115C743.186 115 742.87 114.904 742.67 114.712C742.478 114.52 742.382 114.208 742.382 113.776V109.78H741.518V108.76H741.998C742.198 108.76 742.33 108.716 742.394 108.628C742.466 108.532 742.502 108.384 742.502 108.184V107.056H743.618V108.76H744.782V109.78H743.618V113.98H744.698V115H743.618ZM749.404 113.968H749.248C749 114.752 748.484 115.144 747.7 115.144C747.148 115.144 746.716 114.956 746.404 114.58C746.1 114.196 745.948 113.636 745.948 112.9V108.76H747.184V112.732C747.184 113.636 747.536 114.088 748.24 114.088C748.56 114.088 748.832 113.992 749.056 113.8C749.288 113.6 749.404 113.324 749.404 112.972V108.76H750.64V115H749.404V113.968Z" fill="#FAFAF9"/>
<path d="M778.924 115V106.624H782.236C782.956 106.624 783.496 106.84 783.856 107.272C784.224 107.696 784.408 108.312 784.408 109.12C784.408 109.928 784.224 110.548 783.856 110.98C783.496 111.404 782.956 111.616 782.236 111.616H780.196V115H778.924ZM780.196 110.488H782.128C782.432 110.488 782.66 110.412 782.812 110.26C782.972 110.1 783.052 109.848 783.052 109.504V108.736C783.052 108.392 782.972 108.144 782.812 107.992C782.66 107.832 782.432 107.752 782.128 107.752H780.196V110.488ZM787.729 115.144C787.337 115.144 786.977 115.08 786.649 114.952C786.321 114.824 786.041 114.628 785.809 114.364C785.577 114.092 785.393 113.752 785.257 113.344C785.129 112.936 785.065 112.448 785.065 111.88C785.065 111.312 785.125 110.824 785.245 110.416C785.365 110 785.537 109.66 785.761 109.396C785.993 109.132 786.265 108.936 786.577 108.808C786.897 108.68 787.257 108.616 787.657 108.616C788.449 108.616 789.065 108.876 789.505 109.396C789.953 109.916 790.177 110.744 790.177 111.88V112.192H786.361V112.588C786.361 113.084 786.485 113.464 786.733 113.728C786.989 113.992 787.337 114.124 787.777 114.124C788.153 114.124 788.461 114.04 788.701 113.872C788.949 113.704 789.157 113.468 789.325 113.164L790.045 113.848C789.821 114.24 789.517 114.556 789.133 114.796C788.757 115.028 788.289 115.144 787.729 115.144ZM787.657 109.6C787.241 109.6 786.921 109.728 786.697 109.984C786.473 110.232 786.361 110.608 786.361 111.112V111.364H788.869V111.112C788.869 110.104 788.465 109.6 787.657 109.6ZM791.473 115V108.76H792.709V109.792H792.853C793.101 109.008 793.601 108.616 794.353 108.616C795.129 108.616 795.645 109.016 795.901 109.816H796.033C796.161 109.408 796.365 109.108 796.645 108.916C796.925 108.716 797.277 108.616 797.701 108.616C798.237 108.616 798.653 108.808 798.949 109.192C799.253 109.568 799.405 110.124 799.405 110.86V115H798.169V111.028C798.169 110.588 798.085 110.252 797.917 110.02C797.757 109.788 797.509 109.672 797.173 109.672C796.869 109.672 796.605 109.772 796.381 109.972C796.165 110.164 796.057 110.436 796.057 110.788V115H794.821V111.028C794.821 110.588 794.737 110.252 794.569 110.02C794.409 109.788 794.161 109.672 793.825 109.672C793.513 109.672 793.249 109.772 793.033 109.972C792.817 110.164 792.709 110.436 792.709 110.788V115H791.473ZM801.024 106.12H802.26V109.78H802.404C802.508 109.412 802.692 109.128 802.956 108.928C803.228 108.72 803.548 108.616 803.916 108.616C804.66 108.616 805.212 108.9 805.572 109.468C805.932 110.028 806.112 110.832 806.112 111.88C806.112 112.928 805.932 113.736 805.572 114.304C805.212 114.864 804.66 115.144 803.916 115.144C803.548 115.144 803.228 115.044 802.956 114.844C802.692 114.636 802.508 114.348 802.404 113.98H802.26V115H801.024V106.12ZM803.472 114.088C803.896 114.088 804.224 113.956 804.456 113.692C804.688 113.428 804.804 113.056 804.804 112.576V111.184C804.804 110.704 804.688 110.332 804.456 110.068C804.224 109.804 803.896 109.672 803.472 109.672C803.12 109.672 802.828 109.764 802.596 109.948C802.372 110.132 802.26 110.384 802.26 110.704V113.056C802.26 113.376 802.372 113.628 802.596 113.812C802.828 113.996 803.12 114.088 803.472 114.088ZM811.453 115C811.149 115 810.913 114.916 810.745 114.748C810.577 114.58 810.493 114.316 810.493 113.956H810.349C810.261 114.332 810.077 114.624 809.797 114.832C809.525 115.04 809.189 115.144 808.789 115.144C808.197 115.144 807.753 114.988 807.457 114.676C807.169 114.356 807.025 113.908 807.025 113.332C807.025 112.708 807.225 112.232 807.625 111.904C808.025 111.576 808.613 111.412 809.389 111.412H810.421V110.812C810.421 110.412 810.333 110.12 810.157 109.936C809.981 109.744 809.701 109.648 809.317 109.648C809.021 109.648 808.765 109.712 808.549 109.84C808.341 109.968 808.149 110.184 807.973 110.488L807.241 109.816C807.449 109.464 807.729 109.176 808.081 108.952C808.441 108.728 808.881 108.616 809.401 108.616C810.153 108.616 810.717 108.8 811.093 109.168C811.469 109.528 811.657 110.06 811.657 110.764V113.98H812.245V115H811.453ZM809.197 114.184C809.373 114.184 809.533 114.156 809.677 114.1C809.829 114.044 809.957 113.968 810.061 113.872C810.173 113.776 810.261 113.664 810.325 113.536C810.389 113.4 810.421 113.256 810.421 113.104V112.24H809.449C808.673 112.24 808.285 112.52 808.285 113.08V113.368C808.285 113.648 808.365 113.856 808.525 113.992C808.693 114.12 808.917 114.184 809.197 114.184ZM816.748 108.76H817.972L815.56 116.416C815.496 116.608 815.424 116.768 815.344 116.896C815.272 117.024 815.18 117.124 815.068 117.196C814.964 117.276 814.836 117.328 814.684 117.352C814.532 117.384 814.356 117.4 814.156 117.4H813.292V116.38H814.42L814.708 115.336L812.632 108.76H813.892L814.828 112.036L815.26 113.932H815.392L815.824 112.036L816.748 108.76ZM822.809 115C822.505 115 822.269 114.916 822.101 114.748C821.933 114.58 821.849 114.316 821.849 113.956H821.705C821.617 114.332 821.433 114.624 821.153 114.832C820.881 115.04 820.545 115.144 820.145 115.144C819.553 115.144 819.109 114.988 818.813 114.676C818.525 114.356 818.381 113.908 818.381 113.332C818.381 112.708 818.581 112.232 818.981 111.904C819.381 111.576 819.969 111.412 820.745 111.412H821.777V110.812C821.777 110.412 821.689 110.12 821.513 109.936C821.337 109.744 821.057 109.648 820.673 109.648C820.377 109.648 820.121 109.712 819.905 109.84C819.697 109.968 819.505 110.184 819.329 110.488L818.597 109.816C818.805 109.464 819.085 109.176 819.437 108.952C819.797 108.728 820.237 108.616 820.757 108.616C821.509 108.616 822.073 108.8 822.449 109.168C822.825 109.528 823.013 110.06 823.013 110.764V113.98H823.601V115H822.809ZM820.553 114.184C820.729 114.184 820.889 114.156 821.033 114.1C821.185 114.044 821.313 113.968 821.417 113.872C821.529 113.776 821.617 113.664 821.681 113.536C821.745 113.4 821.777 113.256 821.777 113.104V112.24H820.805C820.029 112.24 819.641 112.52 819.641 113.08V113.368C819.641 113.648 819.721 113.856 819.881 113.992C820.049 114.12 820.273 114.184 820.553 114.184ZM824.766 115V108.76H826.002V109.996H826.146C826.234 109.596 826.398 109.292 826.638 109.084C826.886 108.868 827.198 108.76 827.574 108.76H827.886V110.02H827.358C826.918 110.02 826.582 110.104 826.35 110.272C826.118 110.44 826.002 110.708 826.002 111.076V115H824.766ZM832.84 115C832.536 115 832.3 114.916 832.132 114.748C831.964 114.58 831.88 114.316 831.88 113.956H831.736C831.648 114.332 831.464 114.624 831.184 114.832C830.912 115.04 830.576 115.144 830.176 115.144C829.584 115.144 829.14 114.988 828.844 114.676C828.556 114.356 828.412 113.908 828.412 113.332C828.412 112.708 828.612 112.232 829.012 111.904C829.412 111.576 830 111.412 830.776 111.412H831.808V110.812C831.808 110.412 831.72 110.12 831.544 109.936C831.368 109.744 831.088 109.648 830.704 109.648C830.408 109.648 830.152 109.712 829.936 109.84C829.728 109.968 829.536 110.184 829.36 110.488L828.628 109.816C828.836 109.464 829.116 109.176 829.468 108.952C829.828 108.728 830.268 108.616 830.788 108.616C831.54 108.616 832.104 108.8 832.48 109.168C832.856 109.528 833.044 110.06 833.044 110.764V113.98H833.632V115H832.84ZM830.584 114.184C830.76 114.184 830.92 114.156 831.064 114.1C831.216 114.044 831.344 113.968 831.448 113.872C831.56 113.776 831.648 113.664 831.712 113.536C831.776 113.4 831.808 113.256 831.808 113.104V112.24H830.836C830.06 112.24 829.672 112.52 829.672 113.08V113.368C829.672 113.648 829.752 113.856 829.912 113.992C830.08 114.12 830.304 114.184 830.584 114.184ZM834.797 115V108.76H836.033V109.792H836.177C836.425 109.008 836.937 108.616 837.713 108.616C838.273 108.616 838.705 108.808 839.009 109.192C839.321 109.568 839.477 110.124 839.477 110.86V115H838.241V111.028C838.241 110.588 838.157 110.252 837.989 110.02C837.821 109.788 837.557 109.672 837.197 109.672C836.869 109.672 836.593 109.772 836.369 109.972C836.145 110.164 836.033 110.436 836.033 110.788V115H834.797ZM848.421 115L847.773 112.684H844.953L844.305 115H843.057L845.565 106.624H847.185L849.705 115H848.421ZM846.693 109L846.429 107.776H846.273L846.009 109L845.265 111.64H847.473L846.693 109ZM850.793 115V108.76H852.029V109.792H852.173C852.421 109.008 852.921 108.616 853.673 108.616C854.449 108.616 854.965 109.016 855.221 109.816H855.353C855.481 109.408 855.685 109.108 855.965 108.916C856.245 108.716 856.597 108.616 857.021 108.616C857.557 108.616 857.973 108.808 858.269 109.192C858.573 109.568 858.725 110.124 858.725 110.86V115H857.489V111.028C857.489 110.588 857.405 110.252 857.237 110.02C857.077 109.788 856.829 109.672 856.493 109.672C856.189 109.672 855.925 109.772 855.701 109.972C855.485 110.164 855.377 110.436 855.377 110.788V115H854.141V111.028C854.141 110.588 854.057 110.252 853.889 110.02C853.729 109.788 853.481 109.672 853.145 109.672C852.833 109.672 852.569 109.772 852.353 109.972C852.137 110.164 852.029 110.436 852.029 110.788V115H850.793ZM864.352 115C864.048 115 863.812 114.916 863.644 114.748C863.476 114.58 863.392 114.316 863.392 113.956H863.248C863.16 114.332 862.976 114.624 862.696 114.832C862.424 115.04 862.088 115.144 861.688 115.144C861.096 115.144 860.652 114.988 860.356 114.676C860.068 114.356 859.924 113.908 859.924 113.332C859.924 112.708 860.124 112.232 860.524 111.904C860.924 111.576 861.512 111.412 862.288 111.412H863.32V110.812C863.32 110.412 863.232 110.12 863.056 109.936C862.88 109.744 862.6 109.648 862.216 109.648C861.92 109.648 861.664 109.712 861.448 109.84C861.24 109.968 861.048 110.184 860.872 110.488L860.14 109.816C860.348 109.464 860.628 109.176 860.98 108.952C861.34 108.728 861.78 108.616 862.3 108.616C863.052 108.616 863.616 108.8 863.992 109.168C864.368 109.528 864.556 110.06 864.556 110.764V113.98H865.144V115H864.352ZM862.096 114.184C862.272 114.184 862.432 114.156 862.576 114.1C862.728 114.044 862.856 113.968 862.96 113.872C863.072 113.776 863.16 113.664 863.224 113.536C863.288 113.4 863.32 113.256 863.32 113.104V112.24H862.348C861.572 112.24 861.184 112.52 861.184 113.08V113.368C861.184 113.648 861.264 113.856 861.424 113.992C861.592 114.12 861.816 114.184 862.096 114.184ZM866.309 115V108.76H867.545V109.792H867.689C867.937 109.008 868.449 108.616 869.225 108.616C869.785 108.616 870.217 108.808 870.521 109.192C870.833 109.568 870.989 110.124 870.989 110.86V115H869.753V111.028C869.753 110.588 869.669 110.252 869.501 110.02C869.333 109.788 869.069 109.672 868.709 109.672C868.381 109.672 868.105 109.772 867.881 109.972C867.657 110.164 867.545 110.436 867.545 110.788V115H866.309ZM873.117 112.636L872.745 109.024V106.624H874.065V109.024L873.705 112.636H873.117ZM873.405 115.144C873.117 115.144 872.905 115.084 872.769 114.964C872.633 114.836 872.565 114.66 872.565 114.436V114.172C872.565 113.948 872.633 113.776 872.769 113.656C872.905 113.528 873.117 113.464 873.405 113.464C873.693 113.464 873.905 113.528 874.041 113.656C874.177 113.776 874.245 113.948 874.245 114.172V114.436C874.245 114.66 874.177 114.836 874.041 114.964C873.905 115.084 873.693 115.144 873.405 115.144Z" fill="#FAFAF9"/>
<path d="M408 116.84H420V104.84H408V116.84Z" fill="black"/>
<path d="M760 116.84H772V104.84H760V116.84Z" fill="black"/>
<path d="M550 116.84H562V104.84H550V116.84Z" fill="black"/>
</g>
<defs>
<linearGradient id="paint0_linear_396_96" x1="1556.73" y1="726.5" x2="-2.02208e+06" y2="726.5" gradientUnits="userSpaceOnUse">
<stop stop-color="white"/>
<stop offset="1" stop-color="white" stop-opacity="0"/>
</linearGradient>
<linearGradient id="paint1_linear_396_96" x1="490.566" y1="544.083" x2="-951493" y2="544.083" gradientUnits="userSpaceOnUse">
<stop stop-color="white"/>
<stop offset="1" stop-color="white" stop-opacity="0"/>
</linearGradient>
<linearGradient id="paint2_linear_396_96" x1="1109.73" y1="489.083" x2="-950874" y2="489.083" gradientUnits="userSpaceOnUse">
<stop stop-color="white"/>
<stop offset="1" stop-color="white" stop-opacity="0"/>
</linearGradient>
<linearGradient id="paint3_linear_396_96" x1="1553.07" y1="536.583" x2="-950431" y2="536.583" gradientUnits="userSpaceOnUse">
<stop stop-color="white"/>
<stop offset="1" stop-color="white" stop-opacity="0"/>
</linearGradient>
<linearGradient id="paint4_linear_396_96" x1="933.9" y1="544.083" x2="-951050" y2="544.083" gradientUnits="userSpaceOnUse">
<stop stop-color="white"/>
<stop offset="1" stop-color="white" stop-opacity="0"/>
</linearGradient>
<linearGradient id="paint5_linear_396_96" x1="995.733" y1="466.25" x2="-923340" y2="466.25" gradientUnits="userSpaceOnUse">
<stop stop-color="white"/>
<stop offset="1" stop-color="white" stop-opacity="0"/>
</linearGradient>
<linearGradient id="paint6_linear_396_96" x1="2436.82" y1="551.583" x2="-2.83148e+06" y2="551.583" gradientUnits="userSpaceOnUse">
<stop stop-color="white"/>
<stop offset="1" stop-color="white" stop-opacity="0"/>
</linearGradient>
<linearGradient id="paint7_linear_396_96" x1="1846.82" y1="768.917" x2="-3.22275e+06" y2="768.917" gradientUnits="userSpaceOnUse">
<stop stop-color="white"/>
<stop offset="1" stop-color="white" stop-opacity="0"/>
</linearGradient>
<linearGradient id="paint8_linear_396_96" x1="2648.48" y1="754.75" x2="-3.22194e+06" y2="754.75" gradientUnits="userSpaceOnUse">
<stop stop-color="white"/>
<stop offset="1" stop-color="white" stop-opacity="0"/>
</linearGradient>
<linearGradient id="paint9_linear_396_96" x1="2045.15" y1="688.917" x2="-3.22255e+06" y2="688.917" gradientUnits="userSpaceOnUse">
<stop stop-color="white"/>
<stop offset="1" stop-color="white" stop-opacity="0"/>
</linearGradient>
<linearGradient id="paint10_linear_396_96" x1="3135.32" y1="754.75" x2="-4.44848e+06" y2="754.75" gradientUnits="userSpaceOnUse">
<stop stop-color="white"/>
<stop offset="1" stop-color="white" stop-opacity="0"/>
</linearGradient>
<linearGradient id="paint11_linear_396_96" x1="2926.15" y1="743.917" x2="-4.44869e+06" y2="743.917" gradientUnits="userSpaceOnUse">
<stop stop-color="white"/>
<stop offset="1" stop-color="white" stop-opacity="0"/>
</linearGradient>
<linearGradient id="paint12_linear_396_96" x1="1266.5" y1="279" x2="-2.02237e+06" y2="279" gradientUnits="userSpaceOnUse">
<stop stop-color="white"/>
<stop offset="1" stop-color="white" stop-opacity="0"/>
</linearGradient>
<clipPath id="clip0_396_96">
<rect width="1478" height="161" fill="white"/>
</clipPath>
<clipPath id="clip1_396_96">
<rect width="1478" height="161" fill="white"/>
</clipPath>
<clipPath id="clip2_396_96">
<rect width="1600" height="833.333" fill="white" transform="translate(-60.6001)"/>
</clipPath>
</defs>
</svg>
