<svg width="1478" height="161" viewBox="0 0 1478 161" fill="none" xmlns="http://www.w3.org/2000/svg">
<g clip-path="url(#clip0_924_1739)">
<rect width="1478" height="161" fill="#4D4D4D"/>
<g clip-path="url(#clip1_924_1739)">
<g clip-path="url(#clip2_924_1739)">
<mask id="mask0_924_1739" style="mask-type:luminance" maskUnits="userSpaceOnUse" x="-61" y="0" width="1601" height="834">
<path d="M-60.6001 833.333H1539.4V-0.000305176H-60.6001V833.333Z" fill="white"/>
</mask>
<g mask="url(#mask0_924_1739)">
<path opacity="0.1" d="M385.65 547.333L1378.82 -445.834L1556.73 -443.334L386.9 726.5L385.65 547.333Z" fill="url(#paint0_linear_924_1739)"/>
</g>
<mask id="mask1_924_1739" style="mask-type:luminance" maskUnits="userSpaceOnUse" x="-61" y="0" width="1601" height="834">
<path d="M-60.6001 833.333H1539.4V-0.000305176H-60.6001V833.333Z" fill="white"/>
</mask>
<g mask="url(#mask1_924_1739)">
<path opacity="0.1" d="M-60.3502 459.75L406.9 -7.50037L490.566 -6.33369L-59.7669 544.083L-60.3502 459.75Z" fill="url(#paint1_linear_924_1739)"/>
</g>
<mask id="mask2_924_1739" style="mask-type:luminance" maskUnits="userSpaceOnUse" x="-61" y="0" width="1601" height="834">
<path d="M-60.6001 833.333H1539.4V-0.000305176H-60.6001V833.333Z" fill="white"/>
</mask>
<g mask="url(#mask2_924_1739)">
<path opacity="0.1" d="M558.817 404.75L1026.07 -62.5004L1109.73 -61.3337L559.4 489.083L558.817 404.75Z" fill="url(#paint2_linear_924_1739)"/>
</g>
<mask id="mask3_924_1739" style="mask-type:luminance" maskUnits="userSpaceOnUse" x="-61" y="0" width="1601" height="834">
<path d="M-60.6001 833.333H1539.4V-0.000305176H-60.6001V833.333Z" fill="white"/>
</mask>
<g mask="url(#mask3_924_1739)">
<path opacity="0.1" d="M1002.15 452.25L1469.4 -15.0004L1553.07 -13.8337L1002.73 536.583L1002.15 452.25Z" fill="url(#paint3_linear_924_1739)"/>
</g>
<mask id="mask4_924_1739" style="mask-type:luminance" maskUnits="userSpaceOnUse" x="-61" y="0" width="1601" height="834">
<path d="M-60.6001 833.333H1539.4V-0.000305176H-60.6001V833.333Z" fill="white"/>
</mask>
<g mask="url(#mask4_924_1739)">
<path opacity="0.1" d="M382.983 459.75L850.233 -7.50037L933.9 -6.33369L383.567 544.083L382.983 459.75Z" fill="url(#paint4_linear_924_1739)"/>
</g>
<mask id="mask5_924_1739" style="mask-type:luminance" maskUnits="userSpaceOnUse" x="-61" y="0" width="1601" height="834">
<path d="M-60.6001 833.333H1539.4V-0.000305176H-60.6001V833.333Z" fill="white"/>
</mask>
<g mask="url(#mask5_924_1739)">
<path opacity="0.1" d="M497.65 421.833L951.817 -32.3339L995.733 -68.6672L460.816 466.25L497.65 421.833Z" fill="url(#paint5_linear_924_1739)"/>
</g>
<mask id="mask6_924_1739" style="mask-type:luminance" maskUnits="userSpaceOnUse" x="-61" y="0" width="1601" height="834">
<path d="M-60.6001 833.333H1539.4V-0.000305176H-60.6001V833.333Z" fill="white"/>
</mask>
<g mask="url(#mask6_924_1739)">
<path opacity="0.1" d="M796.817 300.75L2187.73 -1090.25L2436.82 -1086.75L798.567 551.583L796.817 300.75Z" fill="url(#paint6_linear_924_1739)"/>
</g>
<mask id="mask7_924_1739" style="mask-type:luminance" maskUnits="userSpaceOnUse" x="-61" y="0" width="1601" height="834">
<path d="M-60.6001 833.333H1539.4V-0.000305176H-60.6001V833.333Z" fill="white"/>
</mask>
<g mask="url(#mask7_924_1739)">
<path opacity="0.1" d="M-19.2667 483.5L1563.4 -1099.17L1846.82 -1095.17L-17.2666 768.917L-19.2667 483.5Z" fill="url(#paint7_linear_924_1739)"/>
</g>
<mask id="mask8_924_1739" style="mask-type:luminance" maskUnits="userSpaceOnUse" x="-61" y="0" width="1601" height="834">
<path d="M-60.6001 833.333H1539.4V-0.000305176H-60.6001V833.333Z" fill="white"/>
</mask>
<g mask="url(#mask8_924_1739)">
<path opacity="0.1" d="M782.4 469.333L2365.07 -1113.33L2648.48 -1109.33L784.4 754.75L782.4 469.333Z" fill="url(#paint8_linear_924_1739)"/>
</g>
<mask id="mask9_924_1739" style="mask-type:luminance" maskUnits="userSpaceOnUse" x="-61" y="0" width="1601" height="834">
<path d="M-60.6001 833.333H1539.4V-0.000305176H-60.6001V833.333Z" fill="white"/>
</mask>
<g mask="url(#mask9_924_1739)">
<path opacity="0.1" d="M179.067 403.5L1761.73 -1179.17L2045.15 -1175.17L181.067 688.917L179.067 403.5Z" fill="url(#paint9_linear_924_1739)"/>
</g>
<mask id="mask10_924_1739" style="mask-type:luminance" maskUnits="userSpaceOnUse" x="-61" y="0" width="1601" height="834">
<path d="M-60.6001 833.333H1539.4V-0.000305176H-60.6001V833.333Z" fill="white"/>
</mask>
<g mask="url(#mask10_924_1739)">
<path opacity="0.1" d="M559.15 360.75L2744.07 -1824.17L3135.32 -1818.67L561.9 754.75L559.15 360.75Z" fill="url(#paint10_linear_924_1739)"/>
</g>
<mask id="mask11_924_1739" style="mask-type:luminance" maskUnits="userSpaceOnUse" x="-61" y="0" width="1601" height="834">
<path d="M-60.6001 833.333H1539.4V-0.000305176H-60.6001V833.333Z" fill="white"/>
</mask>
<g mask="url(#mask11_924_1739)">
<path opacity="0.1" d="M349.983 349.917L2534.9 -1835L2926.15 -1829.5L352.733 743.917L349.983 349.917Z" fill="url(#paint11_linear_924_1739)"/>
</g>
<mask id="mask12_924_1739" style="mask-type:luminance" maskUnits="userSpaceOnUse" x="-130" y="0" width="1600" height="834">
<path d="M-130 833.333H1470V-0.000305176H-130V833.333Z" fill="white"/>
</mask>
<g mask="url(#mask12_924_1739)">
<path opacity="0.1" d="M95.4167 99.8328L1088.58 -893.334L1266.5 -890.834L96.6667 279L95.4167 99.8328Z" fill="url(#paint12_linear_924_1739)"/>
</g>
</g>
</g>
</g>
<defs>
<linearGradient id="paint0_linear_924_1739" x1="1556.73" y1="726.5" x2="-2.02208e+06" y2="726.5" gradientUnits="userSpaceOnUse">
<stop stop-color="white"/>
<stop offset="1" stop-color="white" stop-opacity="0"/>
</linearGradient>
<linearGradient id="paint1_linear_924_1739" x1="490.566" y1="544.083" x2="-951493" y2="544.083" gradientUnits="userSpaceOnUse">
<stop stop-color="white"/>
<stop offset="1" stop-color="white" stop-opacity="0"/>
</linearGradient>
<linearGradient id="paint2_linear_924_1739" x1="1109.73" y1="489.083" x2="-950874" y2="489.083" gradientUnits="userSpaceOnUse">
<stop stop-color="white"/>
<stop offset="1" stop-color="white" stop-opacity="0"/>
</linearGradient>
<linearGradient id="paint3_linear_924_1739" x1="1553.07" y1="536.583" x2="-950431" y2="536.583" gradientUnits="userSpaceOnUse">
<stop stop-color="white"/>
<stop offset="1" stop-color="white" stop-opacity="0"/>
</linearGradient>
<linearGradient id="paint4_linear_924_1739" x1="933.9" y1="544.083" x2="-951050" y2="544.083" gradientUnits="userSpaceOnUse">
<stop stop-color="white"/>
<stop offset="1" stop-color="white" stop-opacity="0"/>
</linearGradient>
<linearGradient id="paint5_linear_924_1739" x1="995.733" y1="466.25" x2="-923340" y2="466.25" gradientUnits="userSpaceOnUse">
<stop stop-color="white"/>
<stop offset="1" stop-color="white" stop-opacity="0"/>
</linearGradient>
<linearGradient id="paint6_linear_924_1739" x1="2436.82" y1="551.583" x2="-2.83148e+06" y2="551.583" gradientUnits="userSpaceOnUse">
<stop stop-color="white"/>
<stop offset="1" stop-color="white" stop-opacity="0"/>
</linearGradient>
<linearGradient id="paint7_linear_924_1739" x1="1846.82" y1="768.917" x2="-3.22275e+06" y2="768.917" gradientUnits="userSpaceOnUse">
<stop stop-color="white"/>
<stop offset="1" stop-color="white" stop-opacity="0"/>
</linearGradient>
<linearGradient id="paint8_linear_924_1739" x1="2648.48" y1="754.75" x2="-3.22194e+06" y2="754.75" gradientUnits="userSpaceOnUse">
<stop stop-color="white"/>
<stop offset="1" stop-color="white" stop-opacity="0"/>
</linearGradient>
<linearGradient id="paint9_linear_924_1739" x1="2045.15" y1="688.917" x2="-3.22255e+06" y2="688.917" gradientUnits="userSpaceOnUse">
<stop stop-color="white"/>
<stop offset="1" stop-color="white" stop-opacity="0"/>
</linearGradient>
<linearGradient id="paint10_linear_924_1739" x1="3135.32" y1="754.75" x2="-4.44848e+06" y2="754.75" gradientUnits="userSpaceOnUse">
<stop stop-color="white"/>
<stop offset="1" stop-color="white" stop-opacity="0"/>
</linearGradient>
<linearGradient id="paint11_linear_924_1739" x1="2926.15" y1="743.917" x2="-4.44869e+06" y2="743.917" gradientUnits="userSpaceOnUse">
<stop stop-color="white"/>
<stop offset="1" stop-color="white" stop-opacity="0"/>
</linearGradient>
<linearGradient id="paint12_linear_924_1739" x1="1266.5" y1="279" x2="-2.02237e+06" y2="279" gradientUnits="userSpaceOnUse">
<stop stop-color="white"/>
<stop offset="1" stop-color="white" stop-opacity="0"/>
</linearGradient>
<clipPath id="clip0_924_1739">
<rect width="1478" height="161" fill="white"/>
</clipPath>
<clipPath id="clip1_924_1739">
<rect width="1478" height="161" fill="white"/>
</clipPath>
<clipPath id="clip2_924_1739">
<rect width="1600" height="833.333" fill="white" transform="translate(-60.6)"/>
</clipPath>
</defs>
</svg>
